M48
; DRILL file {KiCad (5.1.8)-1} date 05/16/21 14:51:08
; FORMAT={3:3/ absolute / metric / suppress leading zeros}
; #@! TF.CreationDate,2021-05-16T14:51:08+01:00
; #@! TF.GenerationSoftware,Kicad,Pcbnew,(5.1.8)-1
FMAT,2
METRIC,TZ
T1C0.400
T2C0.600
T3C1.000
T4C1.092
T5C1.100
T6C3.500
T7C0.650
%
G90
G05
T1
X54568Y-90153
X54768Y-93753
X55468Y-90153
X55668Y-93753
X56368Y-90153
X56568Y-93753
X58618Y-68453
X58668Y-103653
X59182Y-76708
X60868Y-100853
X61668Y-70253
X64468Y-99753
X67437Y-82169
X67818Y-72771
X67945Y-83820
X67945Y-86995
X72771Y-80645
X73152Y-72771
X82804Y-67691
X82968Y-81153
X85868Y-85653
X87868Y-86753
X89699Y-89853
X91368Y-87853
X91821Y-81026
X92168Y-91053
X93568Y-86353
X93668Y-89453
X96168Y-87128
X96168Y-88578
X99868Y-91553
X101068Y-86578
X103868Y-87953
X106468Y-93853
X106468Y-98053
X107315Y-83693
T4
X78968Y-89548
X78968Y-94653
T5
X97508Y-59690
X102108Y-59690
X55880Y-58420
X60480Y-58420
T6
X45593Y-124206
X45212Y-58801
X110568Y-58928
X110871Y-124206
T7
X110098Y-91743
X110098Y-97523
T2
G00X109018Y-90313
M15
G01X110118Y-90313
M16
G05
G00X109018Y-98953
M15
G01X110118Y-98953
M16
G05
G00X113448Y-90313
M15
G01X114048Y-90313
M16
G05
G00X113448Y-98953
M15
G01X114048Y-98953
M16
G05
T3
G00X55880Y-120416
M15
G01X55880Y-122916
M16
G05
G00X60130Y-116966
M15
G01X57630Y-116966
M16
G05
G00X61880Y-120416
M15
G01X61880Y-122916
M16
G05
T0
M30
