G04 #@! TF.GenerationSoftware,KiCad,Pcbnew,(5.1.8)-1*
G04 #@! TF.CreationDate,2021-05-16T14:51:21+01:00*
G04 #@! TF.ProjectId,jubileev2,6a756269-6c65-4657-9632-2e6b69636164,rev?*
G04 #@! TF.SameCoordinates,Original*
G04 #@! TF.FileFunction,Soldermask,Top*
G04 #@! TF.FilePolarity,Negative*
%FSLAX46Y46*%
G04 Gerber Fmt 4.6, Leading zero omitted, Abs format (unit mm)*
G04 Created by KiCad (PCBNEW (5.1.8)-1) date 2021-05-16 14:51:21*
%MOMM*%
%LPD*%
G01*
G04 APERTURE LIST*
%ADD10R,1.450000X0.600000*%
%ADD11R,1.450000X0.300000*%
%ADD12C,0.650000*%
%ADD13R,1.050000X0.450000*%
%ADD14C,7.000000*%
%ADD15C,3.900000*%
%ADD16R,5.000000X5.000000*%
%ADD17R,2.000000X0.900000*%
%ADD18R,0.900000X2.000000*%
%ADD19R,1.550000X0.700000*%
%ADD20C,1.638000*%
%ADD21R,2.000000X4.500000*%
%ADD22R,4.500000X2.000000*%
%ADD23R,1.200000X0.900000*%
%ADD24R,0.900000X1.200000*%
%ADD25C,2.100000*%
%ADD26R,1.500000X2.000000*%
%ADD27R,3.800000X2.000000*%
%ADD28R,2.000000X3.800000*%
%ADD29R,2.000000X1.500000*%
G04 APERTURE END LIST*
G04 #@! TO.C,U3*
G36*
G01*
X101818000Y-89908000D02*
X101818000Y-89608000D01*
G75*
G02*
X101968000Y-89458000I150000J0D01*
G01*
X103618000Y-89458000D01*
G75*
G02*
X103768000Y-89608000I0J-150000D01*
G01*
X103768000Y-89908000D01*
G75*
G02*
X103618000Y-90058000I-150000J0D01*
G01*
X101968000Y-90058000D01*
G75*
G02*
X101818000Y-89908000I0J150000D01*
G01*
G37*
G36*
G01*
X101818000Y-91178000D02*
X101818000Y-90878000D01*
G75*
G02*
X101968000Y-90728000I150000J0D01*
G01*
X103618000Y-90728000D01*
G75*
G02*
X103768000Y-90878000I0J-150000D01*
G01*
X103768000Y-91178000D01*
G75*
G02*
X103618000Y-91328000I-150000J0D01*
G01*
X101968000Y-91328000D01*
G75*
G02*
X101818000Y-91178000I0J150000D01*
G01*
G37*
G36*
G01*
X101818000Y-92448000D02*
X101818000Y-92148000D01*
G75*
G02*
X101968000Y-91998000I150000J0D01*
G01*
X103618000Y-91998000D01*
G75*
G02*
X103768000Y-92148000I0J-150000D01*
G01*
X103768000Y-92448000D01*
G75*
G02*
X103618000Y-92598000I-150000J0D01*
G01*
X101968000Y-92598000D01*
G75*
G02*
X101818000Y-92448000I0J150000D01*
G01*
G37*
G36*
G01*
X101818000Y-93718000D02*
X101818000Y-93418000D01*
G75*
G02*
X101968000Y-93268000I150000J0D01*
G01*
X103618000Y-93268000D01*
G75*
G02*
X103768000Y-93418000I0J-150000D01*
G01*
X103768000Y-93718000D01*
G75*
G02*
X103618000Y-93868000I-150000J0D01*
G01*
X101968000Y-93868000D01*
G75*
G02*
X101818000Y-93718000I0J150000D01*
G01*
G37*
G36*
G01*
X101818000Y-94988000D02*
X101818000Y-94688000D01*
G75*
G02*
X101968000Y-94538000I150000J0D01*
G01*
X103618000Y-94538000D01*
G75*
G02*
X103768000Y-94688000I0J-150000D01*
G01*
X103768000Y-94988000D01*
G75*
G02*
X103618000Y-95138000I-150000J0D01*
G01*
X101968000Y-95138000D01*
G75*
G02*
X101818000Y-94988000I0J150000D01*
G01*
G37*
G36*
G01*
X101818000Y-96258000D02*
X101818000Y-95958000D01*
G75*
G02*
X101968000Y-95808000I150000J0D01*
G01*
X103618000Y-95808000D01*
G75*
G02*
X103768000Y-95958000I0J-150000D01*
G01*
X103768000Y-96258000D01*
G75*
G02*
X103618000Y-96408000I-150000J0D01*
G01*
X101968000Y-96408000D01*
G75*
G02*
X101818000Y-96258000I0J150000D01*
G01*
G37*
G36*
G01*
X101818000Y-97528000D02*
X101818000Y-97228000D01*
G75*
G02*
X101968000Y-97078000I150000J0D01*
G01*
X103618000Y-97078000D01*
G75*
G02*
X103768000Y-97228000I0J-150000D01*
G01*
X103768000Y-97528000D01*
G75*
G02*
X103618000Y-97678000I-150000J0D01*
G01*
X101968000Y-97678000D01*
G75*
G02*
X101818000Y-97528000I0J150000D01*
G01*
G37*
G36*
G01*
X101818000Y-98798000D02*
X101818000Y-98498000D01*
G75*
G02*
X101968000Y-98348000I150000J0D01*
G01*
X103618000Y-98348000D01*
G75*
G02*
X103768000Y-98498000I0J-150000D01*
G01*
X103768000Y-98798000D01*
G75*
G02*
X103618000Y-98948000I-150000J0D01*
G01*
X101968000Y-98948000D01*
G75*
G02*
X101818000Y-98798000I0J150000D01*
G01*
G37*
G36*
G01*
X96868000Y-98798000D02*
X96868000Y-98498000D01*
G75*
G02*
X97018000Y-98348000I150000J0D01*
G01*
X98668000Y-98348000D01*
G75*
G02*
X98818000Y-98498000I0J-150000D01*
G01*
X98818000Y-98798000D01*
G75*
G02*
X98668000Y-98948000I-150000J0D01*
G01*
X97018000Y-98948000D01*
G75*
G02*
X96868000Y-98798000I0J150000D01*
G01*
G37*
G36*
G01*
X96868000Y-97528000D02*
X96868000Y-97228000D01*
G75*
G02*
X97018000Y-97078000I150000J0D01*
G01*
X98668000Y-97078000D01*
G75*
G02*
X98818000Y-97228000I0J-150000D01*
G01*
X98818000Y-97528000D01*
G75*
G02*
X98668000Y-97678000I-150000J0D01*
G01*
X97018000Y-97678000D01*
G75*
G02*
X96868000Y-97528000I0J150000D01*
G01*
G37*
G36*
G01*
X96868000Y-96258000D02*
X96868000Y-95958000D01*
G75*
G02*
X97018000Y-95808000I150000J0D01*
G01*
X98668000Y-95808000D01*
G75*
G02*
X98818000Y-95958000I0J-150000D01*
G01*
X98818000Y-96258000D01*
G75*
G02*
X98668000Y-96408000I-150000J0D01*
G01*
X97018000Y-96408000D01*
G75*
G02*
X96868000Y-96258000I0J150000D01*
G01*
G37*
G36*
G01*
X96868000Y-94988000D02*
X96868000Y-94688000D01*
G75*
G02*
X97018000Y-94538000I150000J0D01*
G01*
X98668000Y-94538000D01*
G75*
G02*
X98818000Y-94688000I0J-150000D01*
G01*
X98818000Y-94988000D01*
G75*
G02*
X98668000Y-95138000I-150000J0D01*
G01*
X97018000Y-95138000D01*
G75*
G02*
X96868000Y-94988000I0J150000D01*
G01*
G37*
G36*
G01*
X96868000Y-93718000D02*
X96868000Y-93418000D01*
G75*
G02*
X97018000Y-93268000I150000J0D01*
G01*
X98668000Y-93268000D01*
G75*
G02*
X98818000Y-93418000I0J-150000D01*
G01*
X98818000Y-93718000D01*
G75*
G02*
X98668000Y-93868000I-150000J0D01*
G01*
X97018000Y-93868000D01*
G75*
G02*
X96868000Y-93718000I0J150000D01*
G01*
G37*
G36*
G01*
X96868000Y-92448000D02*
X96868000Y-92148000D01*
G75*
G02*
X97018000Y-91998000I150000J0D01*
G01*
X98668000Y-91998000D01*
G75*
G02*
X98818000Y-92148000I0J-150000D01*
G01*
X98818000Y-92448000D01*
G75*
G02*
X98668000Y-92598000I-150000J0D01*
G01*
X97018000Y-92598000D01*
G75*
G02*
X96868000Y-92448000I0J150000D01*
G01*
G37*
G36*
G01*
X96868000Y-91178000D02*
X96868000Y-90878000D01*
G75*
G02*
X97018000Y-90728000I150000J0D01*
G01*
X98668000Y-90728000D01*
G75*
G02*
X98818000Y-90878000I0J-150000D01*
G01*
X98818000Y-91178000D01*
G75*
G02*
X98668000Y-91328000I-150000J0D01*
G01*
X97018000Y-91328000D01*
G75*
G02*
X96868000Y-91178000I0J150000D01*
G01*
G37*
G36*
G01*
X96868000Y-89908000D02*
X96868000Y-89608000D01*
G75*
G02*
X97018000Y-89458000I150000J0D01*
G01*
X98668000Y-89458000D01*
G75*
G02*
X98818000Y-89608000I0J-150000D01*
G01*
X98818000Y-89908000D01*
G75*
G02*
X98668000Y-90058000I-150000J0D01*
G01*
X97018000Y-90058000D01*
G75*
G02*
X96868000Y-89908000I0J150000D01*
G01*
G37*
G04 #@! TD*
G04 #@! TO.C,C11*
G36*
G01*
X105918000Y-85278000D02*
X105918000Y-86228000D01*
G75*
G02*
X105668000Y-86478000I-250000J0D01*
G01*
X105168000Y-86478000D01*
G75*
G02*
X104918000Y-86228000I0J250000D01*
G01*
X104918000Y-85278000D01*
G75*
G02*
X105168000Y-85028000I250000J0D01*
G01*
X105668000Y-85028000D01*
G75*
G02*
X105918000Y-85278000I0J-250000D01*
G01*
G37*
G36*
G01*
X107818000Y-85278000D02*
X107818000Y-86228000D01*
G75*
G02*
X107568000Y-86478000I-250000J0D01*
G01*
X107068000Y-86478000D01*
G75*
G02*
X106818000Y-86228000I0J250000D01*
G01*
X106818000Y-85278000D01*
G75*
G02*
X107068000Y-85028000I250000J0D01*
G01*
X107568000Y-85028000D01*
G75*
G02*
X107818000Y-85278000I0J-250000D01*
G01*
G37*
G04 #@! TD*
D10*
G04 #@! TO.C,USB1*
X108653000Y-91408000D03*
X108653000Y-97858000D03*
X108653000Y-92183000D03*
X108653000Y-97083000D03*
D11*
X108653000Y-96383000D03*
X108653000Y-92883000D03*
X108653000Y-95883000D03*
X108653000Y-93383000D03*
X108653000Y-95383000D03*
X108653000Y-93883000D03*
X108653000Y-94383000D03*
X108653000Y-94883000D03*
D12*
X110098000Y-91743000D03*
X110098000Y-97523000D03*
G04 #@! TD*
G04 #@! TO.C,R4*
G36*
G01*
X111517998Y-87865500D02*
X112418002Y-87865500D01*
G75*
G02*
X112668000Y-88115498I0J-249998D01*
G01*
X112668000Y-88640502D01*
G75*
G02*
X112418002Y-88890500I-249998J0D01*
G01*
X111517998Y-88890500D01*
G75*
G02*
X111268000Y-88640502I0J249998D01*
G01*
X111268000Y-88115498D01*
G75*
G02*
X111517998Y-87865500I249998J0D01*
G01*
G37*
G36*
G01*
X111517998Y-86040500D02*
X112418002Y-86040500D01*
G75*
G02*
X112668000Y-86290498I0J-249998D01*
G01*
X112668000Y-86815502D01*
G75*
G02*
X112418002Y-87065500I-249998J0D01*
G01*
X111517998Y-87065500D01*
G75*
G02*
X111268000Y-86815502I0J249998D01*
G01*
X111268000Y-86290498D01*
G75*
G02*
X111517998Y-86040500I249998J0D01*
G01*
G37*
G04 #@! TD*
G04 #@! TO.C,R3*
G36*
G01*
X112518002Y-101465500D02*
X111617998Y-101465500D01*
G75*
G02*
X111368000Y-101215502I0J249998D01*
G01*
X111368000Y-100690498D01*
G75*
G02*
X111617998Y-100440500I249998J0D01*
G01*
X112518002Y-100440500D01*
G75*
G02*
X112768000Y-100690498I0J-249998D01*
G01*
X112768000Y-101215502D01*
G75*
G02*
X112518002Y-101465500I-249998J0D01*
G01*
G37*
G36*
G01*
X112518002Y-103290500D02*
X111617998Y-103290500D01*
G75*
G02*
X111368000Y-103040502I0J249998D01*
G01*
X111368000Y-102515498D01*
G75*
G02*
X111617998Y-102265500I249998J0D01*
G01*
X112518002Y-102265500D01*
G75*
G02*
X112768000Y-102515498I0J-249998D01*
G01*
X112768000Y-103040502D01*
G75*
G02*
X112518002Y-103290500I-249998J0D01*
G01*
G37*
G04 #@! TD*
D13*
G04 #@! TO.C,Q1*
X99668000Y-86653000D03*
X99668000Y-87303000D03*
X99668000Y-87953000D03*
X97568000Y-87953000D03*
X97568000Y-87303000D03*
X97568000Y-86653000D03*
G04 #@! TD*
G04 #@! TO.C,C10*
G36*
G01*
X105393000Y-89253000D02*
X106343000Y-89253000D01*
G75*
G02*
X106593000Y-89503000I0J-250000D01*
G01*
X106593000Y-90003000D01*
G75*
G02*
X106343000Y-90253000I-250000J0D01*
G01*
X105393000Y-90253000D01*
G75*
G02*
X105143000Y-90003000I0J250000D01*
G01*
X105143000Y-89503000D01*
G75*
G02*
X105393000Y-89253000I250000J0D01*
G01*
G37*
G36*
G01*
X105393000Y-87353000D02*
X106343000Y-87353000D01*
G75*
G02*
X106593000Y-87603000I0J-250000D01*
G01*
X106593000Y-88103000D01*
G75*
G02*
X106343000Y-88353000I-250000J0D01*
G01*
X105393000Y-88353000D01*
G75*
G02*
X105143000Y-88103000I0J250000D01*
G01*
X105143000Y-87603000D01*
G75*
G02*
X105393000Y-87353000I250000J0D01*
G01*
G37*
G04 #@! TD*
G04 #@! TO.C,C4*
G36*
G01*
X63643000Y-68203000D02*
X62693000Y-68203000D01*
G75*
G02*
X62443000Y-67953000I0J250000D01*
G01*
X62443000Y-67453000D01*
G75*
G02*
X62693000Y-67203000I250000J0D01*
G01*
X63643000Y-67203000D01*
G75*
G02*
X63893000Y-67453000I0J-250000D01*
G01*
X63893000Y-67953000D01*
G75*
G02*
X63643000Y-68203000I-250000J0D01*
G01*
G37*
G36*
G01*
X63643000Y-70103000D02*
X62693000Y-70103000D01*
G75*
G02*
X62443000Y-69853000I0J250000D01*
G01*
X62443000Y-69353000D01*
G75*
G02*
X62693000Y-69103000I250000J0D01*
G01*
X63643000Y-69103000D01*
G75*
G02*
X63893000Y-69353000I0J-250000D01*
G01*
X63893000Y-69853000D01*
G75*
G02*
X63643000Y-70103000I-250000J0D01*
G01*
G37*
G04 #@! TD*
D14*
G04 #@! TO.C,H4*
X45593000Y-124206000D03*
D15*
X45593000Y-124206000D03*
G04 #@! TD*
D14*
G04 #@! TO.C,H3*
X110568000Y-58928000D03*
D15*
X110568000Y-58928000D03*
G04 #@! TD*
D14*
G04 #@! TO.C,H2*
X110871000Y-124206000D03*
D15*
X110871000Y-124206000D03*
G04 #@! TD*
D14*
G04 #@! TO.C,H1*
X45212000Y-58801000D03*
D15*
X45212000Y-58801000D03*
G04 #@! TD*
G04 #@! TO.C,C6*
G36*
G01*
X107815000Y-73185000D02*
X107815000Y-74135000D01*
G75*
G02*
X107565000Y-74385000I-250000J0D01*
G01*
X107065000Y-74385000D01*
G75*
G02*
X106815000Y-74135000I0J250000D01*
G01*
X106815000Y-73185000D01*
G75*
G02*
X107065000Y-72935000I250000J0D01*
G01*
X107565000Y-72935000D01*
G75*
G02*
X107815000Y-73185000I0J-250000D01*
G01*
G37*
G36*
G01*
X109715000Y-73185000D02*
X109715000Y-74135000D01*
G75*
G02*
X109465000Y-74385000I-250000J0D01*
G01*
X108965000Y-74385000D01*
G75*
G02*
X108715000Y-74135000I0J250000D01*
G01*
X108715000Y-73185000D01*
G75*
G02*
X108965000Y-72935000I250000J0D01*
G01*
X109465000Y-72935000D01*
G75*
G02*
X109715000Y-73185000I0J-250000D01*
G01*
G37*
G04 #@! TD*
D16*
G04 #@! TO.C,ANT1*
X77836000Y-73872000D03*
D17*
X87336000Y-66372000D03*
X87336000Y-67642000D03*
X87336000Y-68912000D03*
X87336000Y-70182000D03*
X87336000Y-71452000D03*
X87336000Y-72722000D03*
X87336000Y-73992000D03*
X87336000Y-75262000D03*
X87336000Y-76532000D03*
X87336000Y-77802000D03*
X87336000Y-79072000D03*
X87336000Y-80342000D03*
X87336000Y-81612000D03*
X87336000Y-82882000D03*
D18*
X84551000Y-83882000D03*
X83281000Y-83882000D03*
X82011000Y-83882000D03*
X80741000Y-83882000D03*
X79471000Y-83882000D03*
X78201000Y-83882000D03*
X76931000Y-83882000D03*
X75661000Y-83882000D03*
X74391000Y-83882000D03*
X73121000Y-83882000D03*
D17*
X70336000Y-82882000D03*
X70336000Y-81612000D03*
X70336000Y-80342000D03*
X70336000Y-79072000D03*
X70336000Y-77802000D03*
X70336000Y-76532000D03*
X70336000Y-75262000D03*
X70336000Y-73992000D03*
X70336000Y-72722000D03*
X70336000Y-71452000D03*
X70336000Y-70182000D03*
X70336000Y-68912000D03*
X70336000Y-67642000D03*
X70336000Y-66372000D03*
G04 #@! TD*
D19*
G04 #@! TO.C,IC2*
X105087000Y-73660000D03*
X105087000Y-74930000D03*
X105087000Y-76200000D03*
X105087000Y-77470000D03*
X105087000Y-78740000D03*
X105087000Y-80010000D03*
X105087000Y-81280000D03*
X99637000Y-81280000D03*
X99637000Y-80010000D03*
X99637000Y-78740000D03*
X99637000Y-77470000D03*
X99637000Y-76200000D03*
X99637000Y-74930000D03*
X99637000Y-73660000D03*
G04 #@! TD*
G04 #@! TO.C,R12*
G36*
G01*
X65019500Y-78301002D02*
X65019500Y-77400998D01*
G75*
G02*
X65269498Y-77151000I249998J0D01*
G01*
X65794502Y-77151000D01*
G75*
G02*
X66044500Y-77400998I0J-249998D01*
G01*
X66044500Y-78301002D01*
G75*
G02*
X65794502Y-78551000I-249998J0D01*
G01*
X65269498Y-78551000D01*
G75*
G02*
X65019500Y-78301002I0J249998D01*
G01*
G37*
G36*
G01*
X63194500Y-78301002D02*
X63194500Y-77400998D01*
G75*
G02*
X63444498Y-77151000I249998J0D01*
G01*
X63969502Y-77151000D01*
G75*
G02*
X64219500Y-77400998I0J-249998D01*
G01*
X64219500Y-78301002D01*
G75*
G02*
X63969502Y-78551000I-249998J0D01*
G01*
X63444498Y-78551000D01*
G75*
G02*
X63194500Y-78301002I0J249998D01*
G01*
G37*
G04 #@! TD*
G04 #@! TO.C,D4*
G36*
G01*
X64241500Y-81712750D02*
X64241500Y-82625250D01*
G75*
G02*
X63997750Y-82869000I-243750J0D01*
G01*
X63510250Y-82869000D01*
G75*
G02*
X63266500Y-82625250I0J243750D01*
G01*
X63266500Y-81712750D01*
G75*
G02*
X63510250Y-81469000I243750J0D01*
G01*
X63997750Y-81469000D01*
G75*
G02*
X64241500Y-81712750I0J-243750D01*
G01*
G37*
G36*
G01*
X66116500Y-81712750D02*
X66116500Y-82625250D01*
G75*
G02*
X65872750Y-82869000I-243750J0D01*
G01*
X65385250Y-82869000D01*
G75*
G02*
X65141500Y-82625250I0J243750D01*
G01*
X65141500Y-81712750D01*
G75*
G02*
X65385250Y-81469000I243750J0D01*
G01*
X65872750Y-81469000D01*
G75*
G02*
X66116500Y-81712750I0J-243750D01*
G01*
G37*
G04 #@! TD*
D20*
G04 #@! TO.C,S2*
X78968000Y-89548000D03*
X78968000Y-94653000D03*
G04 #@! TD*
D21*
G04 #@! TO.C,J1*
X61880000Y-121666000D03*
X55880000Y-121666000D03*
D22*
X58880000Y-116966000D03*
G04 #@! TD*
G04 #@! TO.C,C3*
G36*
G01*
X46479000Y-90076000D02*
X46479000Y-91026000D01*
G75*
G02*
X46229000Y-91276000I-250000J0D01*
G01*
X45729000Y-91276000D01*
G75*
G02*
X45479000Y-91026000I0J250000D01*
G01*
X45479000Y-90076000D01*
G75*
G02*
X45729000Y-89826000I250000J0D01*
G01*
X46229000Y-89826000D01*
G75*
G02*
X46479000Y-90076000I0J-250000D01*
G01*
G37*
G36*
G01*
X48379000Y-90076000D02*
X48379000Y-91026000D01*
G75*
G02*
X48129000Y-91276000I-250000J0D01*
G01*
X47629000Y-91276000D01*
G75*
G02*
X47379000Y-91026000I0J250000D01*
G01*
X47379000Y-90076000D01*
G75*
G02*
X47629000Y-89826000I250000J0D01*
G01*
X48129000Y-89826000D01*
G75*
G02*
X48379000Y-90076000I0J-250000D01*
G01*
G37*
G04 #@! TD*
G04 #@! TO.C,R2*
G36*
G01*
X62680002Y-72267500D02*
X61779998Y-72267500D01*
G75*
G02*
X61530000Y-72017502I0J249998D01*
G01*
X61530000Y-71492498D01*
G75*
G02*
X61779998Y-71242500I249998J0D01*
G01*
X62680002Y-71242500D01*
G75*
G02*
X62930000Y-71492498I0J-249998D01*
G01*
X62930000Y-72017502D01*
G75*
G02*
X62680002Y-72267500I-249998J0D01*
G01*
G37*
G36*
G01*
X62680002Y-74092500D02*
X61779998Y-74092500D01*
G75*
G02*
X61530000Y-73842502I0J249998D01*
G01*
X61530000Y-73317498D01*
G75*
G02*
X61779998Y-73067500I249998J0D01*
G01*
X62680002Y-73067500D01*
G75*
G02*
X62930000Y-73317498I0J-249998D01*
G01*
X62930000Y-73842502D01*
G75*
G02*
X62680002Y-74092500I-249998J0D01*
G01*
G37*
G04 #@! TD*
G04 #@! TO.C,C8*
G36*
G01*
X65184000Y-73155000D02*
X66134000Y-73155000D01*
G75*
G02*
X66384000Y-73405000I0J-250000D01*
G01*
X66384000Y-73905000D01*
G75*
G02*
X66134000Y-74155000I-250000J0D01*
G01*
X65184000Y-74155000D01*
G75*
G02*
X64934000Y-73905000I0J250000D01*
G01*
X64934000Y-73405000D01*
G75*
G02*
X65184000Y-73155000I250000J0D01*
G01*
G37*
G36*
G01*
X65184000Y-71255000D02*
X66134000Y-71255000D01*
G75*
G02*
X66384000Y-71505000I0J-250000D01*
G01*
X66384000Y-72005000D01*
G75*
G02*
X66134000Y-72255000I-250000J0D01*
G01*
X65184000Y-72255000D01*
G75*
G02*
X64934000Y-72005000I0J250000D01*
G01*
X64934000Y-71505000D01*
G75*
G02*
X65184000Y-71255000I250000J0D01*
G01*
G37*
G04 #@! TD*
G04 #@! TO.C,C2*
G36*
G01*
X46479000Y-113063000D02*
X46479000Y-114013000D01*
G75*
G02*
X46229000Y-114263000I-250000J0D01*
G01*
X45729000Y-114263000D01*
G75*
G02*
X45479000Y-114013000I0J250000D01*
G01*
X45479000Y-113063000D01*
G75*
G02*
X45729000Y-112813000I250000J0D01*
G01*
X46229000Y-112813000D01*
G75*
G02*
X46479000Y-113063000I0J-250000D01*
G01*
G37*
G36*
G01*
X48379000Y-113063000D02*
X48379000Y-114013000D01*
G75*
G02*
X48129000Y-114263000I-250000J0D01*
G01*
X47629000Y-114263000D01*
G75*
G02*
X47379000Y-114013000I0J250000D01*
G01*
X47379000Y-113063000D01*
G75*
G02*
X47629000Y-112813000I250000J0D01*
G01*
X48129000Y-112813000D01*
G75*
G02*
X48379000Y-113063000I0J-250000D01*
G01*
G37*
G04 #@! TD*
G04 #@! TO.C,C1*
G36*
G01*
X46479000Y-101506000D02*
X46479000Y-102456000D01*
G75*
G02*
X46229000Y-102706000I-250000J0D01*
G01*
X45729000Y-102706000D01*
G75*
G02*
X45479000Y-102456000I0J250000D01*
G01*
X45479000Y-101506000D01*
G75*
G02*
X45729000Y-101256000I250000J0D01*
G01*
X46229000Y-101256000D01*
G75*
G02*
X46479000Y-101506000I0J-250000D01*
G01*
G37*
G36*
G01*
X48379000Y-101506000D02*
X48379000Y-102456000D01*
G75*
G02*
X48129000Y-102706000I-250000J0D01*
G01*
X47629000Y-102706000D01*
G75*
G02*
X47379000Y-102456000I0J250000D01*
G01*
X47379000Y-101506000D01*
G75*
G02*
X47629000Y-101256000I250000J0D01*
G01*
X48129000Y-101256000D01*
G75*
G02*
X48379000Y-101506000I0J-250000D01*
G01*
G37*
G04 #@! TD*
G04 #@! TO.C,F1*
G36*
G01*
X105877000Y-110480000D02*
X105877000Y-109230000D01*
G75*
G02*
X106127000Y-108980000I250000J0D01*
G01*
X106877000Y-108980000D01*
G75*
G02*
X107127000Y-109230000I0J-250000D01*
G01*
X107127000Y-110480000D01*
G75*
G02*
X106877000Y-110730000I-250000J0D01*
G01*
X106127000Y-110730000D01*
G75*
G02*
X105877000Y-110480000I0J250000D01*
G01*
G37*
G36*
G01*
X103077000Y-110480000D02*
X103077000Y-109230000D01*
G75*
G02*
X103327000Y-108980000I250000J0D01*
G01*
X104077000Y-108980000D01*
G75*
G02*
X104327000Y-109230000I0J-250000D01*
G01*
X104327000Y-110480000D01*
G75*
G02*
X104077000Y-110730000I-250000J0D01*
G01*
X103327000Y-110730000D01*
G75*
G02*
X103077000Y-110480000I0J250000D01*
G01*
G37*
G04 #@! TD*
D23*
G04 #@! TO.C,D5*
X56515000Y-108077000D03*
X56515000Y-104777000D03*
G04 #@! TD*
D24*
G04 #@! TO.C,D3*
X100025000Y-109855000D03*
X96725000Y-109855000D03*
G04 #@! TD*
G04 #@! TO.C,D2*
X57149000Y-113538000D03*
X53849000Y-113538000D03*
G04 #@! TD*
G04 #@! TO.C,C5*
G36*
G01*
X65184000Y-69091000D02*
X66134000Y-69091000D01*
G75*
G02*
X66384000Y-69341000I0J-250000D01*
G01*
X66384000Y-69841000D01*
G75*
G02*
X66134000Y-70091000I-250000J0D01*
G01*
X65184000Y-70091000D01*
G75*
G02*
X64934000Y-69841000I0J250000D01*
G01*
X64934000Y-69341000D01*
G75*
G02*
X65184000Y-69091000I250000J0D01*
G01*
G37*
G36*
G01*
X65184000Y-67191000D02*
X66134000Y-67191000D01*
G75*
G02*
X66384000Y-67441000I0J-250000D01*
G01*
X66384000Y-67941000D01*
G75*
G02*
X66134000Y-68191000I-250000J0D01*
G01*
X65184000Y-68191000D01*
G75*
G02*
X64934000Y-67941000I0J250000D01*
G01*
X64934000Y-67441000D01*
G75*
G02*
X65184000Y-67191000I250000J0D01*
G01*
G37*
G04 #@! TD*
G04 #@! TO.C,C12*
G36*
G01*
X101633000Y-68080000D02*
X102583000Y-68080000D01*
G75*
G02*
X102833000Y-68330000I0J-250000D01*
G01*
X102833000Y-68830000D01*
G75*
G02*
X102583000Y-69080000I-250000J0D01*
G01*
X101633000Y-69080000D01*
G75*
G02*
X101383000Y-68830000I0J250000D01*
G01*
X101383000Y-68330000D01*
G75*
G02*
X101633000Y-68080000I250000J0D01*
G01*
G37*
G36*
G01*
X101633000Y-69980000D02*
X102583000Y-69980000D01*
G75*
G02*
X102833000Y-70230000I0J-250000D01*
G01*
X102833000Y-70730000D01*
G75*
G02*
X102583000Y-70980000I-250000J0D01*
G01*
X101633000Y-70980000D01*
G75*
G02*
X101383000Y-70730000I0J250000D01*
G01*
X101383000Y-70230000D01*
G75*
G02*
X101633000Y-69980000I250000J0D01*
G01*
G37*
G04 #@! TD*
G04 #@! TO.C,D1*
G36*
G01*
X60177500Y-97968750D02*
X60177500Y-98881250D01*
G75*
G02*
X59933750Y-99125000I-243750J0D01*
G01*
X59446250Y-99125000D01*
G75*
G02*
X59202500Y-98881250I0J243750D01*
G01*
X59202500Y-97968750D01*
G75*
G02*
X59446250Y-97725000I243750J0D01*
G01*
X59933750Y-97725000D01*
G75*
G02*
X60177500Y-97968750I0J-243750D01*
G01*
G37*
G36*
G01*
X58302500Y-97968750D02*
X58302500Y-98881250D01*
G75*
G02*
X58058750Y-99125000I-243750J0D01*
G01*
X57571250Y-99125000D01*
G75*
G02*
X57327500Y-98881250I0J243750D01*
G01*
X57327500Y-97968750D01*
G75*
G02*
X57571250Y-97725000I243750J0D01*
G01*
X58058750Y-97725000D01*
G75*
G02*
X58302500Y-97968750I0J-243750D01*
G01*
G37*
G04 #@! TD*
D25*
G04 #@! TO.C,J3*
X60480000Y-58420000D03*
G36*
G01*
X54830000Y-59220001D02*
X54830000Y-57619999D01*
G75*
G02*
X55079999Y-57370000I249999J0D01*
G01*
X56680001Y-57370000D01*
G75*
G02*
X56930000Y-57619999I0J-249999D01*
G01*
X56930000Y-59220001D01*
G75*
G02*
X56680001Y-59470000I-249999J0D01*
G01*
X55079999Y-59470000D01*
G75*
G02*
X54830000Y-59220001I0J249999D01*
G01*
G37*
G04 #@! TD*
D26*
G04 #@! TO.C,Q3*
X49897000Y-73914000D03*
X54497000Y-73914000D03*
X52197000Y-73914000D03*
D27*
X52197000Y-67614000D03*
G04 #@! TD*
G04 #@! TO.C,R1*
G36*
G01*
X57399500Y-95573002D02*
X57399500Y-94672998D01*
G75*
G02*
X57649498Y-94423000I249998J0D01*
G01*
X58174502Y-94423000D01*
G75*
G02*
X58424500Y-94672998I0J-249998D01*
G01*
X58424500Y-95573002D01*
G75*
G02*
X58174502Y-95823000I-249998J0D01*
G01*
X57649498Y-95823000D01*
G75*
G02*
X57399500Y-95573002I0J249998D01*
G01*
G37*
G36*
G01*
X59224500Y-95573002D02*
X59224500Y-94672998D01*
G75*
G02*
X59474498Y-94423000I249998J0D01*
G01*
X59999502Y-94423000D01*
G75*
G02*
X60249500Y-94672998I0J-249998D01*
G01*
X60249500Y-95573002D01*
G75*
G02*
X59999502Y-95823000I-249998J0D01*
G01*
X59474498Y-95823000D01*
G75*
G02*
X59224500Y-95573002I0J249998D01*
G01*
G37*
G04 #@! TD*
G04 #@! TO.C,R8*
G36*
G01*
X107257002Y-64219500D02*
X106356998Y-64219500D01*
G75*
G02*
X106107000Y-63969502I0J249998D01*
G01*
X106107000Y-63444498D01*
G75*
G02*
X106356998Y-63194500I249998J0D01*
G01*
X107257002Y-63194500D01*
G75*
G02*
X107507000Y-63444498I0J-249998D01*
G01*
X107507000Y-63969502D01*
G75*
G02*
X107257002Y-64219500I-249998J0D01*
G01*
G37*
G36*
G01*
X107257002Y-66044500D02*
X106356998Y-66044500D01*
G75*
G02*
X106107000Y-65794502I0J249998D01*
G01*
X106107000Y-65269498D01*
G75*
G02*
X106356998Y-65019500I249998J0D01*
G01*
X107257002Y-65019500D01*
G75*
G02*
X107507000Y-65269498I0J-249998D01*
G01*
X107507000Y-65794502D01*
G75*
G02*
X107257002Y-66044500I-249998J0D01*
G01*
G37*
G04 #@! TD*
G04 #@! TO.C,R9*
G36*
G01*
X102558002Y-66091500D02*
X101657998Y-66091500D01*
G75*
G02*
X101408000Y-65841502I0J249998D01*
G01*
X101408000Y-65316498D01*
G75*
G02*
X101657998Y-65066500I249998J0D01*
G01*
X102558002Y-65066500D01*
G75*
G02*
X102808000Y-65316498I0J-249998D01*
G01*
X102808000Y-65841502D01*
G75*
G02*
X102558002Y-66091500I-249998J0D01*
G01*
G37*
G36*
G01*
X102558002Y-64266500D02*
X101657998Y-64266500D01*
G75*
G02*
X101408000Y-64016502I0J249998D01*
G01*
X101408000Y-63491498D01*
G75*
G02*
X101657998Y-63241500I249998J0D01*
G01*
X102558002Y-63241500D01*
G75*
G02*
X102808000Y-63491498I0J-249998D01*
G01*
X102808000Y-64016502D01*
G75*
G02*
X102558002Y-64266500I-249998J0D01*
G01*
G37*
G04 #@! TD*
G04 #@! TO.C,R10*
G36*
G01*
X49351500Y-77158002D02*
X49351500Y-76257998D01*
G75*
G02*
X49601498Y-76008000I249998J0D01*
G01*
X50126502Y-76008000D01*
G75*
G02*
X50376500Y-76257998I0J-249998D01*
G01*
X50376500Y-77158002D01*
G75*
G02*
X50126502Y-77408000I-249998J0D01*
G01*
X49601498Y-77408000D01*
G75*
G02*
X49351500Y-77158002I0J249998D01*
G01*
G37*
G36*
G01*
X51176500Y-77158002D02*
X51176500Y-76257998D01*
G75*
G02*
X51426498Y-76008000I249998J0D01*
G01*
X51951502Y-76008000D01*
G75*
G02*
X52201500Y-76257998I0J-249998D01*
G01*
X52201500Y-77158002D01*
G75*
G02*
X51951502Y-77408000I-249998J0D01*
G01*
X51426498Y-77408000D01*
G75*
G02*
X51176500Y-77158002I0J249998D01*
G01*
G37*
G04 #@! TD*
G04 #@! TO.C,R11*
G36*
G01*
X51557500Y-58870002D02*
X51557500Y-57969998D01*
G75*
G02*
X51807498Y-57720000I249998J0D01*
G01*
X52332502Y-57720000D01*
G75*
G02*
X52582500Y-57969998I0J-249998D01*
G01*
X52582500Y-58870002D01*
G75*
G02*
X52332502Y-59120000I-249998J0D01*
G01*
X51807498Y-59120000D01*
G75*
G02*
X51557500Y-58870002I0J249998D01*
G01*
G37*
G36*
G01*
X49732500Y-58870002D02*
X49732500Y-57969998D01*
G75*
G02*
X49982498Y-57720000I249998J0D01*
G01*
X50507502Y-57720000D01*
G75*
G02*
X50757500Y-57969998I0J-249998D01*
G01*
X50757500Y-58870002D01*
G75*
G02*
X50507502Y-59120000I-249998J0D01*
G01*
X49982498Y-59120000D01*
G75*
G02*
X49732500Y-58870002I0J249998D01*
G01*
G37*
G04 #@! TD*
G04 #@! TO.C,SW3*
G36*
G01*
X103158000Y-58889999D02*
X103158000Y-60490001D01*
G75*
G02*
X102908001Y-60740000I-249999J0D01*
G01*
X101307999Y-60740000D01*
G75*
G02*
X101058000Y-60490001I0J249999D01*
G01*
X101058000Y-58889999D01*
G75*
G02*
X101307999Y-58640000I249999J0D01*
G01*
X102908001Y-58640000D01*
G75*
G02*
X103158000Y-58889999I0J-249999D01*
G01*
G37*
D25*
X97508000Y-59690000D03*
G04 #@! TD*
D28*
G04 #@! TO.C,U1*
X52782000Y-96506000D03*
D29*
X46482000Y-96506000D03*
X46482000Y-98806000D03*
X46482000Y-94206000D03*
G04 #@! TD*
D28*
G04 #@! TO.C,U2*
X52782000Y-108077000D03*
D29*
X46482000Y-108077000D03*
X46482000Y-110377000D03*
X46482000Y-105777000D03*
G04 #@! TD*
M02*
