G04 #@! TF.GenerationSoftware,KiCad,Pcbnew,(5.1.8)-1*
G04 #@! TF.CreationDate,2021-05-16T14:51:21+01:00*
G04 #@! TF.ProjectId,jubileev2,6a756269-6c65-4657-9632-2e6b69636164,rev?*
G04 #@! TF.SameCoordinates,Original*
G04 #@! TF.FileFunction,Legend,Top*
G04 #@! TF.FilePolarity,Positive*
%FSLAX46Y46*%
G04 Gerber Fmt 4.6, Leading zero omitted, Abs format (unit mm)*
G04 Created by KiCad (PCBNEW (5.1.8)-1) date 2021-05-16 14:51:21*
%MOMM*%
%LPD*%
G01*
G04 APERTURE LIST*
%ADD10C,0.150000*%
%ADD11C,0.125000*%
%ADD12C,0.300000*%
%ADD13C,0.100000*%
%ADD14C,0.120000*%
%ADD15C,0.200000*%
%ADD16C,0.010000*%
%ADD17C,0.254000*%
G04 APERTURE END LIST*
D10*
X61041809Y-97240380D02*
X61660857Y-97240380D01*
X61327523Y-97621333D01*
X61470380Y-97621333D01*
X61565619Y-97668952D01*
X61613238Y-97716571D01*
X61660857Y-97811809D01*
X61660857Y-98049904D01*
X61613238Y-98145142D01*
X61565619Y-98192761D01*
X61470380Y-98240380D01*
X61184666Y-98240380D01*
X61089428Y-98192761D01*
X61041809Y-98145142D01*
X62089428Y-98145142D02*
X62137047Y-98192761D01*
X62089428Y-98240380D01*
X62041809Y-98192761D01*
X62089428Y-98145142D01*
X62089428Y-98240380D01*
X62470380Y-97240380D02*
X63089428Y-97240380D01*
X62756095Y-97621333D01*
X62898952Y-97621333D01*
X62994190Y-97668952D01*
X63041809Y-97716571D01*
X63089428Y-97811809D01*
X63089428Y-98049904D01*
X63041809Y-98145142D01*
X62994190Y-98192761D01*
X62898952Y-98240380D01*
X62613238Y-98240380D01*
X62518000Y-98192761D01*
X62470380Y-98145142D01*
X63375142Y-97240380D02*
X63708476Y-98240380D01*
X64041809Y-97240380D01*
X61184666Y-99890380D02*
X61184666Y-98890380D01*
X61565619Y-98890380D01*
X61660857Y-98938000D01*
X61708476Y-98985619D01*
X61756095Y-99080857D01*
X61756095Y-99223714D01*
X61708476Y-99318952D01*
X61660857Y-99366571D01*
X61565619Y-99414190D01*
X61184666Y-99414190D01*
X62089428Y-98890380D02*
X62327523Y-99890380D01*
X62518000Y-99176095D01*
X62708476Y-99890380D01*
X62946571Y-98890380D01*
X63898952Y-99890380D02*
X63565619Y-99414190D01*
X63327523Y-99890380D02*
X63327523Y-98890380D01*
X63708476Y-98890380D01*
X63803714Y-98938000D01*
X63851333Y-98985619D01*
X63898952Y-99080857D01*
X63898952Y-99223714D01*
X63851333Y-99318952D01*
X63803714Y-99366571D01*
X63708476Y-99414190D01*
X63327523Y-99414190D01*
D11*
X62801523Y-83093714D02*
X63182476Y-83093714D01*
X62992000Y-83284190D02*
X62992000Y-82903238D01*
X57058714Y-97726476D02*
X57058714Y-97345523D01*
X57249190Y-97536000D02*
X56868238Y-97536000D01*
D12*
X55435571Y-124948142D02*
X56578428Y-124948142D01*
X56007000Y-125519571D02*
X56007000Y-124376714D01*
X61277571Y-124821142D02*
X62420428Y-124821142D01*
D11*
X98552000Y-72822571D02*
X98575809Y-72846380D01*
X98552000Y-72870190D01*
X98528190Y-72846380D01*
X98552000Y-72822571D01*
X98552000Y-72870190D01*
X100577523Y-110888714D02*
X100958476Y-110888714D01*
X100768000Y-111079190D02*
X100768000Y-110698238D01*
X57820714Y-114871476D02*
X57820714Y-114490523D01*
X58011190Y-114681000D02*
X57630238Y-114681000D01*
X57467523Y-108239714D02*
X57848476Y-108239714D01*
X57658000Y-108430190D02*
X57658000Y-108049238D01*
D13*
X97097904Y-127488904D02*
X97097904Y-126955571D01*
X97097904Y-127107952D02*
X97136000Y-127031761D01*
X97174095Y-126993666D01*
X97250285Y-126955571D01*
X97326476Y-126955571D01*
X97936000Y-126955571D02*
X97936000Y-127488904D01*
X97745523Y-126650809D02*
X97555047Y-127222238D01*
X98050285Y-127222238D01*
D10*
X79844476Y-121080380D02*
X79844476Y-121794666D01*
X79796857Y-121937523D01*
X79701619Y-122032761D01*
X79558761Y-122080380D01*
X79463523Y-122080380D01*
X80749238Y-121413714D02*
X80749238Y-122080380D01*
X80320666Y-121413714D02*
X80320666Y-121937523D01*
X80368285Y-122032761D01*
X80463523Y-122080380D01*
X80606380Y-122080380D01*
X80701619Y-122032761D01*
X80749238Y-121985142D01*
X81225428Y-122080380D02*
X81225428Y-121080380D01*
X81225428Y-121461333D02*
X81320666Y-121413714D01*
X81511142Y-121413714D01*
X81606380Y-121461333D01*
X81653999Y-121508952D01*
X81701619Y-121604190D01*
X81701619Y-121889904D01*
X81653999Y-121985142D01*
X81606380Y-122032761D01*
X81511142Y-122080380D01*
X81320666Y-122080380D01*
X81225428Y-122032761D01*
X82130190Y-122080380D02*
X82130190Y-121413714D01*
X82130190Y-121080380D02*
X82082571Y-121128000D01*
X82130190Y-121175619D01*
X82177809Y-121128000D01*
X82130190Y-121080380D01*
X82130190Y-121175619D01*
X82749238Y-122080380D02*
X82653999Y-122032761D01*
X82606380Y-121937523D01*
X82606380Y-121080380D01*
X83511142Y-122032761D02*
X83415904Y-122080380D01*
X83225428Y-122080380D01*
X83130190Y-122032761D01*
X83082571Y-121937523D01*
X83082571Y-121556571D01*
X83130190Y-121461333D01*
X83225428Y-121413714D01*
X83415904Y-121413714D01*
X83511142Y-121461333D01*
X83558761Y-121556571D01*
X83558761Y-121651809D01*
X83082571Y-121747047D01*
X84368285Y-122032761D02*
X84273047Y-122080380D01*
X84082571Y-122080380D01*
X83987333Y-122032761D01*
X83939714Y-121937523D01*
X83939714Y-121556571D01*
X83987333Y-121461333D01*
X84082571Y-121413714D01*
X84273047Y-121413714D01*
X84368285Y-121461333D01*
X84415904Y-121556571D01*
X84415904Y-121651809D01*
X83939714Y-121747047D01*
X86082571Y-122080380D02*
X85606380Y-122080380D01*
X85606380Y-121080380D01*
X86415904Y-122080380D02*
X86415904Y-121413714D01*
X86415904Y-121080380D02*
X86368285Y-121128000D01*
X86415904Y-121175619D01*
X86463523Y-121128000D01*
X86415904Y-121080380D01*
X86415904Y-121175619D01*
X86892095Y-121413714D02*
X86892095Y-122080380D01*
X86892095Y-121508952D02*
X86939714Y-121461333D01*
X87034952Y-121413714D01*
X87177809Y-121413714D01*
X87273047Y-121461333D01*
X87320666Y-121556571D01*
X87320666Y-122080380D01*
X88177809Y-122032761D02*
X88082571Y-122080380D01*
X87892095Y-122080380D01*
X87796857Y-122032761D01*
X87749238Y-121937523D01*
X87749238Y-121556571D01*
X87796857Y-121461333D01*
X87892095Y-121413714D01*
X88082571Y-121413714D01*
X88177809Y-121461333D01*
X88225428Y-121556571D01*
X88225428Y-121651809D01*
X87749238Y-121747047D01*
X89415904Y-122080380D02*
X89415904Y-121080380D01*
X89653999Y-121080380D01*
X89796857Y-121128000D01*
X89892095Y-121223238D01*
X89939714Y-121318476D01*
X89987333Y-121508952D01*
X89987333Y-121651809D01*
X89939714Y-121842285D01*
X89892095Y-121937523D01*
X89796857Y-122032761D01*
X89653999Y-122080380D01*
X89415904Y-122080380D01*
X90558761Y-122080380D02*
X90463523Y-122032761D01*
X90415904Y-121985142D01*
X90368285Y-121889904D01*
X90368285Y-121604190D01*
X90415904Y-121508952D01*
X90463523Y-121461333D01*
X90558761Y-121413714D01*
X90701619Y-121413714D01*
X90796857Y-121461333D01*
X90844476Y-121508952D01*
X90892095Y-121604190D01*
X90892095Y-121889904D01*
X90844476Y-121985142D01*
X90796857Y-122032761D01*
X90701619Y-122080380D01*
X90558761Y-122080380D01*
X91463523Y-122080380D02*
X91368285Y-122032761D01*
X91320666Y-121985142D01*
X91273047Y-121889904D01*
X91273047Y-121604190D01*
X91320666Y-121508952D01*
X91368285Y-121461333D01*
X91463523Y-121413714D01*
X91606380Y-121413714D01*
X91701619Y-121461333D01*
X91749238Y-121508952D01*
X91796857Y-121604190D01*
X91796857Y-121889904D01*
X91749238Y-121985142D01*
X91701619Y-122032761D01*
X91606380Y-122080380D01*
X91463523Y-122080380D01*
X92225428Y-122080380D02*
X92225428Y-121413714D01*
X92225428Y-121604190D02*
X92273047Y-121508952D01*
X92320666Y-121461333D01*
X92415904Y-121413714D01*
X92511142Y-121413714D01*
X93939714Y-121556571D02*
X94082571Y-121604190D01*
X94130190Y-121651809D01*
X94177809Y-121747047D01*
X94177809Y-121889904D01*
X94130190Y-121985142D01*
X94082571Y-122032761D01*
X93987333Y-122080380D01*
X93606380Y-122080380D01*
X93606380Y-121080380D01*
X93939714Y-121080380D01*
X94034952Y-121128000D01*
X94082571Y-121175619D01*
X94130190Y-121270857D01*
X94130190Y-121366095D01*
X94082571Y-121461333D01*
X94034952Y-121508952D01*
X93939714Y-121556571D01*
X93606380Y-121556571D01*
X95034952Y-121413714D02*
X95034952Y-122080380D01*
X94606380Y-121413714D02*
X94606380Y-121937523D01*
X94653999Y-122032761D01*
X94749238Y-122080380D01*
X94892095Y-122080380D01*
X94987333Y-122032761D01*
X95034952Y-121985142D01*
X95368285Y-121413714D02*
X95749238Y-121413714D01*
X95511142Y-121080380D02*
X95511142Y-121937523D01*
X95558761Y-122032761D01*
X95653999Y-122080380D01*
X95749238Y-122080380D01*
X95939714Y-121413714D02*
X96320666Y-121413714D01*
X96082571Y-121080380D02*
X96082571Y-121937523D01*
X96130190Y-122032761D01*
X96225428Y-122080380D01*
X96320666Y-122080380D01*
X96796857Y-122080380D02*
X96701619Y-122032761D01*
X96653999Y-121985142D01*
X96606380Y-121889904D01*
X96606380Y-121604190D01*
X96653999Y-121508952D01*
X96701619Y-121461333D01*
X96796857Y-121413714D01*
X96939714Y-121413714D01*
X97034952Y-121461333D01*
X97082571Y-121508952D01*
X97130190Y-121604190D01*
X97130190Y-121889904D01*
X97082571Y-121985142D01*
X97034952Y-122032761D01*
X96939714Y-122080380D01*
X96796857Y-122080380D01*
X97558761Y-121413714D02*
X97558761Y-122080380D01*
X97558761Y-121508952D02*
X97606380Y-121461333D01*
X97701619Y-121413714D01*
X97844476Y-121413714D01*
X97939714Y-121461333D01*
X97987333Y-121556571D01*
X97987333Y-122080380D01*
X82915904Y-123730380D02*
X82915904Y-123063714D01*
X82915904Y-123254190D02*
X82963523Y-123158952D01*
X83011142Y-123111333D01*
X83106380Y-123063714D01*
X83201619Y-123063714D01*
X83915904Y-123682761D02*
X83820666Y-123730380D01*
X83630190Y-123730380D01*
X83534952Y-123682761D01*
X83487333Y-123587523D01*
X83487333Y-123206571D01*
X83534952Y-123111333D01*
X83630190Y-123063714D01*
X83820666Y-123063714D01*
X83915904Y-123111333D01*
X83963523Y-123206571D01*
X83963523Y-123301809D01*
X83487333Y-123397047D01*
X84392095Y-123063714D02*
X84392095Y-124063714D01*
X84392095Y-123111333D02*
X84487333Y-123063714D01*
X84677809Y-123063714D01*
X84773047Y-123111333D01*
X84820666Y-123158952D01*
X84868285Y-123254190D01*
X84868285Y-123539904D01*
X84820666Y-123635142D01*
X84773047Y-123682761D01*
X84677809Y-123730380D01*
X84487333Y-123730380D01*
X84392095Y-123682761D01*
X85439714Y-123730380D02*
X85344476Y-123682761D01*
X85296857Y-123587523D01*
X85296857Y-122730380D01*
X86249238Y-123730380D02*
X86249238Y-123206571D01*
X86201619Y-123111333D01*
X86106380Y-123063714D01*
X85915904Y-123063714D01*
X85820666Y-123111333D01*
X86249238Y-123682761D02*
X86154000Y-123730380D01*
X85915904Y-123730380D01*
X85820666Y-123682761D01*
X85773047Y-123587523D01*
X85773047Y-123492285D01*
X85820666Y-123397047D01*
X85915904Y-123349428D01*
X86154000Y-123349428D01*
X86249238Y-123301809D01*
X87154000Y-123682761D02*
X87058761Y-123730380D01*
X86868285Y-123730380D01*
X86773047Y-123682761D01*
X86725428Y-123635142D01*
X86677809Y-123539904D01*
X86677809Y-123254190D01*
X86725428Y-123158952D01*
X86773047Y-123111333D01*
X86868285Y-123063714D01*
X87058761Y-123063714D01*
X87154000Y-123111333D01*
X87963523Y-123682761D02*
X87868285Y-123730380D01*
X87677809Y-123730380D01*
X87582571Y-123682761D01*
X87534952Y-123587523D01*
X87534952Y-123206571D01*
X87582571Y-123111333D01*
X87677809Y-123063714D01*
X87868285Y-123063714D01*
X87963523Y-123111333D01*
X88011142Y-123206571D01*
X88011142Y-123301809D01*
X87534952Y-123397047D01*
X88439714Y-123730380D02*
X88439714Y-123063714D01*
X88439714Y-123158952D02*
X88487333Y-123111333D01*
X88582571Y-123063714D01*
X88725428Y-123063714D01*
X88820666Y-123111333D01*
X88868285Y-123206571D01*
X88868285Y-123730380D01*
X88868285Y-123206571D02*
X88915904Y-123111333D01*
X89011142Y-123063714D01*
X89154000Y-123063714D01*
X89249238Y-123111333D01*
X89296857Y-123206571D01*
X89296857Y-123730380D01*
X90154000Y-123682761D02*
X90058761Y-123730380D01*
X89868285Y-123730380D01*
X89773047Y-123682761D01*
X89725428Y-123587523D01*
X89725428Y-123206571D01*
X89773047Y-123111333D01*
X89868285Y-123063714D01*
X90058761Y-123063714D01*
X90154000Y-123111333D01*
X90201619Y-123206571D01*
X90201619Y-123301809D01*
X89725428Y-123397047D01*
X90630190Y-123063714D02*
X90630190Y-123730380D01*
X90630190Y-123158952D02*
X90677809Y-123111333D01*
X90773047Y-123063714D01*
X90915904Y-123063714D01*
X91011142Y-123111333D01*
X91058761Y-123206571D01*
X91058761Y-123730380D01*
X91392095Y-123063714D02*
X91773047Y-123063714D01*
X91534952Y-122730380D02*
X91534952Y-123587523D01*
X91582571Y-123682761D01*
X91677809Y-123730380D01*
X91773047Y-123730380D01*
X92868285Y-123730380D02*
X92868285Y-122730380D01*
X93249238Y-122730380D01*
X93344476Y-122778000D01*
X93392095Y-122825619D01*
X93439714Y-122920857D01*
X93439714Y-123063714D01*
X93392095Y-123158952D01*
X93344476Y-123206571D01*
X93249238Y-123254190D01*
X92868285Y-123254190D01*
X94439714Y-123635142D02*
X94392095Y-123682761D01*
X94249238Y-123730380D01*
X94154000Y-123730380D01*
X94011142Y-123682761D01*
X93915904Y-123587523D01*
X93868285Y-123492285D01*
X93820666Y-123301809D01*
X93820666Y-123158952D01*
X93868285Y-122968476D01*
X93915904Y-122873238D01*
X94011142Y-122778000D01*
X94154000Y-122730380D01*
X94249238Y-122730380D01*
X94392095Y-122778000D01*
X94439714Y-122825619D01*
X95201619Y-123206571D02*
X95344476Y-123254190D01*
X95392095Y-123301809D01*
X95439714Y-123397047D01*
X95439714Y-123539904D01*
X95392095Y-123635142D01*
X95344476Y-123682761D01*
X95249238Y-123730380D01*
X94868285Y-123730380D01*
X94868285Y-122730380D01*
X95201619Y-122730380D01*
X95296857Y-122778000D01*
X95344476Y-122825619D01*
X95392095Y-122920857D01*
X95392095Y-123016095D01*
X95344476Y-123111333D01*
X95296857Y-123158952D01*
X95201619Y-123206571D01*
X94868285Y-123206571D01*
X82828619Y-124680380D02*
X83066714Y-125680380D01*
X83257190Y-124966095D01*
X83447666Y-125680380D01*
X83685761Y-124680380D01*
X84066714Y-125680380D02*
X84066714Y-125013714D01*
X84066714Y-124680380D02*
X84019095Y-124728000D01*
X84066714Y-124775619D01*
X84114333Y-124728000D01*
X84066714Y-124680380D01*
X84066714Y-124775619D01*
X84685761Y-125680380D02*
X84590523Y-125632761D01*
X84542904Y-125537523D01*
X84542904Y-124680380D01*
X85209571Y-125680380D02*
X85114333Y-125632761D01*
X85066714Y-125537523D01*
X85066714Y-124680380D01*
X86685761Y-125156571D02*
X86352428Y-125156571D01*
X86352428Y-125680380D02*
X86352428Y-124680380D01*
X86828619Y-124680380D01*
X87638142Y-125013714D02*
X87638142Y-125680380D01*
X87209571Y-125013714D02*
X87209571Y-125537523D01*
X87257190Y-125632761D01*
X87352428Y-125680380D01*
X87495285Y-125680380D01*
X87590523Y-125632761D01*
X87638142Y-125585142D01*
X88114333Y-125680380D02*
X88114333Y-125013714D01*
X88114333Y-125204190D02*
X88161952Y-125108952D01*
X88209571Y-125061333D01*
X88304809Y-125013714D01*
X88400047Y-125013714D01*
X88733380Y-125013714D02*
X88733380Y-125680380D01*
X88733380Y-125108952D02*
X88781000Y-125061333D01*
X88876238Y-125013714D01*
X89019095Y-125013714D01*
X89114333Y-125061333D01*
X89161952Y-125156571D01*
X89161952Y-125680380D01*
X90019095Y-125632761D02*
X89923857Y-125680380D01*
X89733380Y-125680380D01*
X89638142Y-125632761D01*
X89590523Y-125537523D01*
X89590523Y-125156571D01*
X89638142Y-125061333D01*
X89733380Y-125013714D01*
X89923857Y-125013714D01*
X90019095Y-125061333D01*
X90066714Y-125156571D01*
X90066714Y-125251809D01*
X89590523Y-125347047D01*
X90638142Y-125680380D02*
X90542904Y-125632761D01*
X90495285Y-125537523D01*
X90495285Y-124680380D01*
X91161952Y-125680380D02*
X91066714Y-125632761D01*
X91019095Y-125537523D01*
X91019095Y-124680380D01*
X92257190Y-124775619D02*
X92304809Y-124728000D01*
X92400047Y-124680380D01*
X92638142Y-124680380D01*
X92733380Y-124728000D01*
X92781000Y-124775619D01*
X92828619Y-124870857D01*
X92828619Y-124966095D01*
X92781000Y-125108952D01*
X92209571Y-125680380D01*
X92828619Y-125680380D01*
X93447666Y-124680380D02*
X93542904Y-124680380D01*
X93638142Y-124728000D01*
X93685761Y-124775619D01*
X93733380Y-124870857D01*
X93781000Y-125061333D01*
X93781000Y-125299428D01*
X93733380Y-125489904D01*
X93685761Y-125585142D01*
X93638142Y-125632761D01*
X93542904Y-125680380D01*
X93447666Y-125680380D01*
X93352428Y-125632761D01*
X93304809Y-125585142D01*
X93257190Y-125489904D01*
X93209571Y-125299428D01*
X93209571Y-125061333D01*
X93257190Y-124870857D01*
X93304809Y-124775619D01*
X93352428Y-124728000D01*
X93447666Y-124680380D01*
X94161952Y-124775619D02*
X94209571Y-124728000D01*
X94304809Y-124680380D01*
X94542904Y-124680380D01*
X94638142Y-124728000D01*
X94685761Y-124775619D01*
X94733380Y-124870857D01*
X94733380Y-124966095D01*
X94685761Y-125108952D01*
X94114333Y-125680380D01*
X94733380Y-125680380D01*
X95685761Y-125680380D02*
X95114333Y-125680380D01*
X95400047Y-125680380D02*
X95400047Y-124680380D01*
X95304809Y-124823238D01*
X95209571Y-124918476D01*
X95114333Y-124966095D01*
X83900047Y-126663714D02*
X84090523Y-127330380D01*
X84281000Y-126854190D01*
X84471476Y-127330380D01*
X84661952Y-126663714D01*
X85042904Y-127330380D02*
X85042904Y-126663714D01*
X85042904Y-126330380D02*
X84995285Y-126378000D01*
X85042904Y-126425619D01*
X85090523Y-126378000D01*
X85042904Y-126330380D01*
X85042904Y-126425619D01*
X85661952Y-127330380D02*
X85566714Y-127282761D01*
X85519095Y-127187523D01*
X85519095Y-126330380D01*
X86185761Y-127330380D02*
X86090523Y-127282761D01*
X86042904Y-127187523D01*
X86042904Y-126330380D01*
X86423857Y-126663714D02*
X86804809Y-126663714D01*
X86566714Y-127330380D02*
X86566714Y-126473238D01*
X86614333Y-126378000D01*
X86709571Y-126330380D01*
X86804809Y-126330380D01*
X87566714Y-126663714D02*
X87566714Y-127330380D01*
X87138142Y-126663714D02*
X87138142Y-127187523D01*
X87185761Y-127282761D01*
X87281000Y-127330380D01*
X87423857Y-127330380D01*
X87519095Y-127282761D01*
X87566714Y-127235142D01*
X88042904Y-127330380D02*
X88042904Y-126663714D01*
X88042904Y-126854190D02*
X88090523Y-126758952D01*
X88138142Y-126711333D01*
X88233380Y-126663714D01*
X88328619Y-126663714D01*
X88661952Y-126663714D02*
X88661952Y-127330380D01*
X88661952Y-126758952D02*
X88709571Y-126711333D01*
X88804809Y-126663714D01*
X88947666Y-126663714D01*
X89042904Y-126711333D01*
X89090523Y-126806571D01*
X89090523Y-127330380D01*
X89947666Y-127282761D02*
X89852428Y-127330380D01*
X89661952Y-127330380D01*
X89566714Y-127282761D01*
X89519095Y-127187523D01*
X89519095Y-126806571D01*
X89566714Y-126711333D01*
X89661952Y-126663714D01*
X89852428Y-126663714D01*
X89947666Y-126711333D01*
X89995285Y-126806571D01*
X89995285Y-126901809D01*
X89519095Y-126997047D01*
X90566714Y-127330380D02*
X90471476Y-127282761D01*
X90423857Y-127187523D01*
X90423857Y-126330380D01*
X91090523Y-127330380D02*
X90995285Y-127282761D01*
X90947666Y-127187523D01*
X90947666Y-126330380D01*
X91471476Y-127235142D02*
X91519095Y-127282761D01*
X91471476Y-127330380D01*
X91423857Y-127282761D01*
X91471476Y-127235142D01*
X91471476Y-127330380D01*
X92376238Y-127282761D02*
X92281000Y-127330380D01*
X92090523Y-127330380D01*
X91995285Y-127282761D01*
X91947666Y-127235142D01*
X91900047Y-127139904D01*
X91900047Y-126854190D01*
X91947666Y-126758952D01*
X91995285Y-126711333D01*
X92090523Y-126663714D01*
X92281000Y-126663714D01*
X92376238Y-126711333D01*
X92947666Y-127330380D02*
X92852428Y-127282761D01*
X92804809Y-127235142D01*
X92757190Y-127139904D01*
X92757190Y-126854190D01*
X92804809Y-126758952D01*
X92852428Y-126711333D01*
X92947666Y-126663714D01*
X93090523Y-126663714D01*
X93185761Y-126711333D01*
X93233380Y-126758952D01*
X93281000Y-126854190D01*
X93281000Y-127139904D01*
X93233380Y-127235142D01*
X93185761Y-127282761D01*
X93090523Y-127330380D01*
X92947666Y-127330380D01*
X93709571Y-127330380D02*
X93709571Y-126663714D01*
X93709571Y-126758952D02*
X93757190Y-126711333D01*
X93852428Y-126663714D01*
X93995285Y-126663714D01*
X94090523Y-126711333D01*
X94138142Y-126806571D01*
X94138142Y-127330380D01*
X94138142Y-126806571D02*
X94185761Y-126711333D01*
X94281000Y-126663714D01*
X94423857Y-126663714D01*
X94519095Y-126711333D01*
X94566714Y-126806571D01*
X94566714Y-127330380D01*
X73001142Y-127031047D02*
X73048761Y-127078666D01*
X73096380Y-127221523D01*
X73096380Y-127316761D01*
X73048761Y-127459619D01*
X72953523Y-127554857D01*
X72858285Y-127602476D01*
X72667809Y-127650095D01*
X72524952Y-127650095D01*
X72334476Y-127602476D01*
X72239238Y-127554857D01*
X72144000Y-127459619D01*
X72096380Y-127316761D01*
X72096380Y-127221523D01*
X72144000Y-127078666D01*
X72191619Y-127031047D01*
X72572571Y-126602476D02*
X72572571Y-126269142D01*
X73096380Y-126126285D02*
X73096380Y-126602476D01*
X72096380Y-126602476D01*
X72096380Y-126126285D01*
X73096380Y-125697714D02*
X72096380Y-125697714D01*
X73096380Y-125126285D01*
X72096380Y-125126285D01*
X72096380Y-124792952D02*
X72096380Y-124221523D01*
X73096380Y-124507238D02*
X72096380Y-124507238D01*
X73096380Y-123316761D02*
X72620190Y-123650095D01*
X73096380Y-123888190D02*
X72096380Y-123888190D01*
X72096380Y-123507238D01*
X72144000Y-123412000D01*
X72191619Y-123364380D01*
X72286857Y-123316761D01*
X72429714Y-123316761D01*
X72524952Y-123364380D01*
X72572571Y-123412000D01*
X72620190Y-123507238D01*
X72620190Y-123888190D01*
X72572571Y-122888190D02*
X72572571Y-122554857D01*
X73096380Y-122412000D02*
X73096380Y-122888190D01*
X72096380Y-122888190D01*
X72096380Y-122412000D01*
X73096380Y-121221523D02*
X72096380Y-121221523D01*
X72096380Y-120840571D01*
X72144000Y-120745333D01*
X72191619Y-120697714D01*
X72286857Y-120650095D01*
X72429714Y-120650095D01*
X72524952Y-120697714D01*
X72572571Y-120745333D01*
X72620190Y-120840571D01*
X72620190Y-121221523D01*
X72096380Y-120031047D02*
X72096380Y-119840571D01*
X72144000Y-119745333D01*
X72239238Y-119650095D01*
X72429714Y-119602476D01*
X72763047Y-119602476D01*
X72953523Y-119650095D01*
X73048761Y-119745333D01*
X73096380Y-119840571D01*
X73096380Y-120031047D01*
X73048761Y-120126285D01*
X72953523Y-120221523D01*
X72763047Y-120269142D01*
X72429714Y-120269142D01*
X72239238Y-120221523D01*
X72144000Y-120126285D01*
X72096380Y-120031047D01*
X73048761Y-119221523D02*
X73096380Y-119078666D01*
X73096380Y-118840571D01*
X73048761Y-118745333D01*
X73001142Y-118697714D01*
X72905904Y-118650095D01*
X72810666Y-118650095D01*
X72715428Y-118697714D01*
X72667809Y-118745333D01*
X72620190Y-118840571D01*
X72572571Y-119031047D01*
X72524952Y-119126285D01*
X72477333Y-119173904D01*
X72382095Y-119221523D01*
X72286857Y-119221523D01*
X72191619Y-119173904D01*
X72144000Y-119126285D01*
X72096380Y-119031047D01*
X72096380Y-118792952D01*
X72144000Y-118650095D01*
X73096380Y-118221523D02*
X72096380Y-118221523D01*
X72096380Y-117888190D02*
X72096380Y-117316761D01*
X73096380Y-117602476D02*
X72096380Y-117602476D01*
X73096380Y-116983428D02*
X72096380Y-116983428D01*
X72096380Y-116650095D02*
X73096380Y-116316761D01*
X72096380Y-115983428D01*
X72572571Y-115650095D02*
X72572571Y-115316761D01*
X73096380Y-115173904D02*
X73096380Y-115650095D01*
X72096380Y-115650095D01*
X72096380Y-115173904D01*
X55705690Y-56218128D02*
X56467595Y-56218128D01*
X56086642Y-56599080D02*
X56086642Y-55837176D01*
X59991404Y-56218128D02*
X60753309Y-56218128D01*
D14*
G04 #@! TO.C,U3*
X100318000Y-89143000D02*
X96868000Y-89143000D01*
X100318000Y-89143000D02*
X102268000Y-89143000D01*
X100318000Y-99263000D02*
X98368000Y-99263000D01*
X100318000Y-99263000D02*
X102268000Y-99263000D01*
G04 #@! TO.C,C11*
X106629252Y-86488000D02*
X106106748Y-86488000D01*
X106629252Y-85018000D02*
X106106748Y-85018000D01*
G04 #@! TO.C,R4*
X112703000Y-87238436D02*
X112703000Y-87692564D01*
X111233000Y-87238436D02*
X111233000Y-87692564D01*
G04 #@! TO.C,R3*
X111333000Y-102092564D02*
X111333000Y-101638436D01*
X112803000Y-102092564D02*
X112803000Y-101638436D01*
D15*
G04 #@! TO.C,Q1*
X98443000Y-86253000D02*
X98793000Y-86253000D01*
X98793000Y-86253000D02*
X98793000Y-88353000D01*
X98793000Y-88353000D02*
X98443000Y-88353000D01*
X98443000Y-88353000D02*
X98443000Y-86253000D01*
X97043000Y-86078000D02*
X98093000Y-86078000D01*
D14*
G04 #@! TO.C,C10*
X106603000Y-88541748D02*
X106603000Y-89064252D01*
X105133000Y-88541748D02*
X105133000Y-89064252D01*
G04 #@! TO.C,C4*
X62433000Y-68914252D02*
X62433000Y-68391748D01*
X63903000Y-68914252D02*
X63903000Y-68391748D01*
G04 #@! TO.C,C6*
X108526252Y-74395000D02*
X108003748Y-74395000D01*
X108526252Y-72925000D02*
X108003748Y-72925000D01*
D13*
G04 #@! TO.C,ANT1*
X69836000Y-83882000D02*
X69836000Y-84382000D01*
X69836000Y-84382000D02*
X71836000Y-84382000D01*
X85836000Y-84382000D02*
X87836000Y-84382000D01*
X87836000Y-84382000D02*
X87836000Y-83882000D01*
X69836000Y-65132000D02*
X69836000Y-58882000D01*
X69836000Y-58882000D02*
X87836000Y-58882000D01*
X87836000Y-58882000D02*
X87836000Y-65132000D01*
D15*
X68736000Y-66232000D02*
X68736000Y-66232000D01*
X68736000Y-66432000D02*
X68736000Y-66432000D01*
X68736000Y-66232000D02*
G75*
G03*
X68736000Y-66432000I0J-100000D01*
G01*
X68736000Y-66432000D02*
G75*
G03*
X68736000Y-66232000I0J100000D01*
G01*
G04 #@! TO.C,IC2*
X98862000Y-72960000D02*
X100412000Y-72960000D01*
X100762000Y-81795000D02*
X100762000Y-73145000D01*
X103962000Y-81795000D02*
X100762000Y-81795000D01*
X103962000Y-73145000D02*
X103962000Y-81795000D01*
X100762000Y-73145000D02*
X103962000Y-73145000D01*
D14*
G04 #@! TO.C,R12*
X64392436Y-77116000D02*
X64846564Y-77116000D01*
X64392436Y-78586000D02*
X64846564Y-78586000D01*
G04 #@! TO.C,D4*
X63691500Y-83129000D02*
X66376500Y-83129000D01*
X66376500Y-83129000D02*
X66376500Y-81209000D01*
X66376500Y-81209000D02*
X63691500Y-81209000D01*
D13*
G04 #@! TO.C,S2*
X80168000Y-89001000D02*
X82067000Y-89001000D01*
X82067000Y-89001000D02*
X82067000Y-95199000D01*
X82067000Y-95199000D02*
X80168000Y-95199000D01*
X77768000Y-89001000D02*
X75869000Y-89001000D01*
X75869000Y-89001000D02*
X75869000Y-95199000D01*
X75869000Y-95199000D02*
X77768000Y-95199000D01*
G04 #@! TO.C,J1*
X62380000Y-126266000D02*
X63380000Y-126266000D01*
X62380000Y-117066000D02*
X63380000Y-117066000D01*
X69680000Y-126266000D02*
X69180000Y-126266000D01*
X69680000Y-126266000D02*
X69680000Y-125766000D01*
X69680000Y-117066000D02*
X69680000Y-117566000D01*
X69680000Y-117066000D02*
X69180000Y-117066000D01*
X60680000Y-120466000D02*
X60680000Y-122866000D01*
X55080000Y-117066000D02*
X55580000Y-117066000D01*
X55080000Y-117066000D02*
X55080000Y-117566000D01*
X55080000Y-126266000D02*
X55580000Y-126266000D01*
X55080000Y-126266000D02*
X55080000Y-125766000D01*
D14*
G04 #@! TO.C,C3*
X47190252Y-91286000D02*
X46667748Y-91286000D01*
X47190252Y-89816000D02*
X46667748Y-89816000D01*
G04 #@! TO.C,R2*
X62965000Y-72894564D02*
X62965000Y-72440436D01*
X61495000Y-72894564D02*
X61495000Y-72440436D01*
G04 #@! TO.C,C8*
X64924000Y-72443748D02*
X64924000Y-72966252D01*
X66394000Y-72443748D02*
X66394000Y-72966252D01*
G04 #@! TO.C,C2*
X47190252Y-112803000D02*
X46667748Y-112803000D01*
X47190252Y-114273000D02*
X46667748Y-114273000D01*
G04 #@! TO.C,C1*
X47190252Y-101246000D02*
X46667748Y-101246000D01*
X47190252Y-102716000D02*
X46667748Y-102716000D01*
G04 #@! TO.C,F1*
X104499936Y-108945000D02*
X105704064Y-108945000D01*
X104499936Y-110765000D02*
X105704064Y-110765000D01*
D16*
G04 #@! TO.C,G\u002A\u002A\u002A*
G36*
X94106428Y-114930720D02*
G01*
X94195189Y-114954839D01*
X94266122Y-114995694D01*
X94320308Y-115053823D01*
X94343586Y-115093800D01*
X94366916Y-115151575D01*
X94376953Y-115208183D01*
X94378175Y-115244603D01*
X94367341Y-115337261D01*
X94335464Y-115416349D01*
X94283482Y-115481025D01*
X94212331Y-115530447D01*
X94122950Y-115563775D01*
X94016275Y-115580167D01*
X94003525Y-115580900D01*
X93892400Y-115586306D01*
X93892400Y-114922800D01*
X93998753Y-114922800D01*
X94106428Y-114930720D01*
G37*
X94106428Y-114930720D02*
X94195189Y-114954839D01*
X94266122Y-114995694D01*
X94320308Y-115053823D01*
X94343586Y-115093800D01*
X94366916Y-115151575D01*
X94376953Y-115208183D01*
X94378175Y-115244603D01*
X94367341Y-115337261D01*
X94335464Y-115416349D01*
X94283482Y-115481025D01*
X94212331Y-115530447D01*
X94122950Y-115563775D01*
X94016275Y-115580167D01*
X94003525Y-115580900D01*
X93892400Y-115586306D01*
X93892400Y-114922800D01*
X93998753Y-114922800D01*
X94106428Y-114930720D01*
G36*
X89865530Y-114924680D02*
G01*
X89936640Y-114932255D01*
X89985992Y-114948684D01*
X90016240Y-114975812D01*
X90030038Y-115015486D01*
X90031600Y-115040148D01*
X90025303Y-115092402D01*
X90004579Y-115130969D01*
X89966675Y-115158024D01*
X89908840Y-115175743D01*
X89849089Y-115184382D01*
X89764900Y-115193007D01*
X89764900Y-114920110D01*
X89865530Y-114924680D01*
G37*
X89865530Y-114924680D02*
X89936640Y-114932255D01*
X89985992Y-114948684D01*
X90016240Y-114975812D01*
X90030038Y-115015486D01*
X90031600Y-115040148D01*
X90025303Y-115092402D01*
X90004579Y-115130969D01*
X89966675Y-115158024D01*
X89908840Y-115175743D01*
X89849089Y-115184382D01*
X89764900Y-115193007D01*
X89764900Y-114920110D01*
X89865530Y-114924680D01*
G36*
X88011330Y-114924680D02*
G01*
X88082440Y-114932255D01*
X88131792Y-114948684D01*
X88162040Y-114975812D01*
X88175838Y-115015486D01*
X88177400Y-115040148D01*
X88171103Y-115092402D01*
X88150379Y-115130969D01*
X88112475Y-115158024D01*
X88054640Y-115175743D01*
X87994889Y-115184382D01*
X87910700Y-115193007D01*
X87910700Y-114920110D01*
X88011330Y-114924680D01*
G37*
X88011330Y-114924680D02*
X88082440Y-114932255D01*
X88131792Y-114948684D01*
X88162040Y-114975812D01*
X88175838Y-115015486D01*
X88177400Y-115040148D01*
X88171103Y-115092402D01*
X88150379Y-115130969D01*
X88112475Y-115158024D01*
X88054640Y-115175743D01*
X87994889Y-115184382D01*
X87910700Y-115193007D01*
X87910700Y-114920110D01*
X88011330Y-114924680D01*
G36*
X86316585Y-114928432D02*
G01*
X86395694Y-114946418D01*
X86461468Y-114978392D01*
X86515440Y-115022633D01*
X86558563Y-115073650D01*
X86585563Y-115127431D01*
X86599171Y-115191426D01*
X86602250Y-115259350D01*
X86590978Y-115347982D01*
X86558342Y-115423697D01*
X86505334Y-115485638D01*
X86432944Y-115532944D01*
X86342163Y-115564758D01*
X86233984Y-115580220D01*
X86231704Y-115580354D01*
X86120000Y-115586723D01*
X86120000Y-114922800D01*
X86219294Y-114922800D01*
X86316585Y-114928432D01*
G37*
X86316585Y-114928432D02*
X86395694Y-114946418D01*
X86461468Y-114978392D01*
X86515440Y-115022633D01*
X86558563Y-115073650D01*
X86585563Y-115127431D01*
X86599171Y-115191426D01*
X86602250Y-115259350D01*
X86590978Y-115347982D01*
X86558342Y-115423697D01*
X86505334Y-115485638D01*
X86432944Y-115532944D01*
X86342163Y-115564758D01*
X86233984Y-115580220D01*
X86231704Y-115580354D01*
X86120000Y-115586723D01*
X86120000Y-114922800D01*
X86219294Y-114922800D01*
X86316585Y-114928432D01*
G36*
X90948690Y-114929528D02*
G01*
X91029473Y-114953570D01*
X91101647Y-114998132D01*
X91107921Y-115003488D01*
X91160993Y-115066106D01*
X91195913Y-115141414D01*
X91212313Y-115223963D01*
X91209825Y-115308305D01*
X91188080Y-115388995D01*
X91146709Y-115460583D01*
X91139446Y-115469434D01*
X91080322Y-115524390D01*
X91011919Y-115559563D01*
X90929154Y-115577304D01*
X90901550Y-115579536D01*
X90847677Y-115580786D01*
X90807496Y-115575967D01*
X90769638Y-115563148D01*
X90749150Y-115553683D01*
X90670042Y-115503398D01*
X90612595Y-115439868D01*
X90576635Y-115362818D01*
X90561992Y-115271974D01*
X90561605Y-115253000D01*
X90568496Y-115172204D01*
X90591225Y-115104857D01*
X90632878Y-115042440D01*
X90641583Y-115032253D01*
X90705745Y-114977367D01*
X90781720Y-114941741D01*
X90864404Y-114925690D01*
X90948690Y-114929528D01*
G37*
X90948690Y-114929528D02*
X91029473Y-114953570D01*
X91101647Y-114998132D01*
X91107921Y-115003488D01*
X91160993Y-115066106D01*
X91195913Y-115141414D01*
X91212313Y-115223963D01*
X91209825Y-115308305D01*
X91188080Y-115388995D01*
X91146709Y-115460583D01*
X91139446Y-115469434D01*
X91080322Y-115524390D01*
X91011919Y-115559563D01*
X90929154Y-115577304D01*
X90901550Y-115579536D01*
X90847677Y-115580786D01*
X90807496Y-115575967D01*
X90769638Y-115563148D01*
X90749150Y-115553683D01*
X90670042Y-115503398D01*
X90612595Y-115439868D01*
X90576635Y-115362818D01*
X90561992Y-115271974D01*
X90561605Y-115253000D01*
X90568496Y-115172204D01*
X90591225Y-115104857D01*
X90632878Y-115042440D01*
X90641583Y-115032253D01*
X90705745Y-114977367D01*
X90781720Y-114941741D01*
X90864404Y-114925690D01*
X90948690Y-114929528D01*
G36*
X89338912Y-110383954D02*
G01*
X89458750Y-110386624D01*
X89565586Y-110391154D01*
X89654053Y-110397575D01*
X89676000Y-110399850D01*
X90034740Y-110452530D01*
X90383756Y-110528175D01*
X90722436Y-110626590D01*
X91050167Y-110747580D01*
X91366334Y-110890950D01*
X91587350Y-111008421D01*
X91667414Y-111055891D01*
X91761317Y-111115053D01*
X91863005Y-111181802D01*
X91966424Y-111252036D01*
X92065522Y-111321652D01*
X92154245Y-111386545D01*
X92219610Y-111437028D01*
X92487283Y-111667480D01*
X92736478Y-111914709D01*
X92966493Y-112177664D01*
X93176627Y-112455296D01*
X93366178Y-112746556D01*
X93534445Y-113050393D01*
X93680726Y-113365760D01*
X93804320Y-113691605D01*
X93872737Y-113910545D01*
X93893384Y-113984209D01*
X93912747Y-114056264D01*
X93929090Y-114120040D01*
X93940676Y-114168867D01*
X93943650Y-114183025D01*
X93959204Y-114262399D01*
X94567152Y-114262400D01*
X95175100Y-114262400D01*
X95175100Y-116243600D01*
X93959204Y-116243600D01*
X93943650Y-116322975D01*
X93928250Y-116391448D01*
X93905790Y-116477805D01*
X93878043Y-116576115D01*
X93846781Y-116680448D01*
X93813778Y-116784873D01*
X93780806Y-116883459D01*
X93752080Y-116963754D01*
X93711530Y-117066056D01*
X93661230Y-117182794D01*
X93604491Y-117306989D01*
X93544625Y-117431659D01*
X93484943Y-117549824D01*
X93428756Y-117654505D01*
X93403042Y-117699548D01*
X93214524Y-117996747D01*
X93006869Y-118278120D01*
X92781100Y-118542836D01*
X92538238Y-118790063D01*
X92279306Y-119018967D01*
X92005326Y-119228717D01*
X91717318Y-119418481D01*
X91416305Y-119587425D01*
X91103309Y-119734719D01*
X90779352Y-119859529D01*
X90731190Y-119875823D01*
X90498018Y-119948026D01*
X90272962Y-120006195D01*
X90046133Y-120052538D01*
X89807644Y-120089262D01*
X89733150Y-120098638D01*
X89675758Y-120104102D01*
X89599735Y-120109250D01*
X89509935Y-120113941D01*
X89411214Y-120118040D01*
X89308428Y-120121407D01*
X89206434Y-120123905D01*
X89110087Y-120125396D01*
X89024242Y-120125742D01*
X88953757Y-120124806D01*
X88903487Y-120122448D01*
X88901300Y-120122265D01*
X88732119Y-120106516D01*
X88582615Y-120089988D01*
X88447064Y-120071859D01*
X88319742Y-120051307D01*
X88194926Y-120027513D01*
X88101200Y-120007420D01*
X87768881Y-119920323D01*
X87445320Y-119809933D01*
X87131565Y-119677157D01*
X86828666Y-119522903D01*
X86537669Y-119348080D01*
X86259625Y-119153596D01*
X85995581Y-118940358D01*
X85746586Y-118709276D01*
X85513689Y-118461256D01*
X85297939Y-118197208D01*
X85100383Y-117918039D01*
X84922071Y-117624657D01*
X84764052Y-117317971D01*
X84627423Y-116999020D01*
X84545945Y-116768343D01*
X84471924Y-116516700D01*
X84412987Y-116278525D01*
X84405017Y-116243600D01*
X86198978Y-116243600D01*
X86242941Y-116360416D01*
X86350485Y-116612547D01*
X86478497Y-116851109D01*
X86627917Y-117077541D01*
X86799685Y-117293284D01*
X86970143Y-117475511D01*
X87161594Y-117653338D01*
X87357264Y-117808671D01*
X87561566Y-117944415D01*
X87778910Y-118063473D01*
X88013709Y-118168752D01*
X88037700Y-118178387D01*
X88189860Y-118232885D01*
X88358245Y-118282700D01*
X88533796Y-118325608D01*
X88707456Y-118359386D01*
X88863200Y-118381074D01*
X88907080Y-118384046D01*
X88970914Y-118386112D01*
X89049275Y-118387304D01*
X89136734Y-118387655D01*
X89227863Y-118387198D01*
X89317233Y-118385966D01*
X89399417Y-118383992D01*
X89468986Y-118381310D01*
X89520512Y-118377952D01*
X89529950Y-118377010D01*
X89804799Y-118333845D01*
X90075065Y-118266269D01*
X90338683Y-118175145D01*
X90593590Y-118061337D01*
X90837722Y-117925708D01*
X91069016Y-117769120D01*
X91169583Y-117691059D01*
X91354699Y-117526838D01*
X91530710Y-117342349D01*
X91693912Y-117142140D01*
X91840602Y-116930763D01*
X91967077Y-116712765D01*
X91969445Y-116708234D01*
X91997812Y-116651780D01*
X92028846Y-116586592D01*
X92060654Y-116517058D01*
X92091339Y-116447565D01*
X92119008Y-116382500D01*
X92141764Y-116326251D01*
X92157713Y-116283204D01*
X92164961Y-116257746D01*
X92165200Y-116255048D01*
X92152638Y-116253875D01*
X92115507Y-116252748D01*
X92054637Y-116251671D01*
X91970859Y-116250647D01*
X91865002Y-116249679D01*
X91737899Y-116248770D01*
X91590378Y-116247924D01*
X91423271Y-116247143D01*
X91237409Y-116246431D01*
X91033621Y-116245792D01*
X90812738Y-116245227D01*
X90575591Y-116244741D01*
X90323010Y-116244337D01*
X90055826Y-116244017D01*
X89774869Y-116243786D01*
X89480970Y-116243646D01*
X89182089Y-116243600D01*
X86198978Y-116243600D01*
X84405017Y-116243600D01*
X84405016Y-116243599D01*
X83789308Y-116243600D01*
X83173600Y-116243600D01*
X83173600Y-114745000D01*
X83754857Y-114745000D01*
X83760638Y-115084725D01*
X83762535Y-115188063D01*
X83764488Y-115269497D01*
X83766784Y-115332524D01*
X83769707Y-115380637D01*
X83773544Y-115417333D01*
X83778580Y-115446107D01*
X83785101Y-115470453D01*
X83793394Y-115493869D01*
X83794282Y-115496168D01*
X83842458Y-115587193D01*
X83908312Y-115662386D01*
X83988602Y-115720319D01*
X84080085Y-115759565D01*
X84179520Y-115778696D01*
X84283664Y-115776285D01*
X84380100Y-115754065D01*
X84453698Y-115719327D01*
X84523986Y-115668166D01*
X84581579Y-115607860D01*
X84597107Y-115585770D01*
X84618523Y-115550159D01*
X84635463Y-115516095D01*
X84648444Y-115480044D01*
X84657984Y-115438475D01*
X84664599Y-115387853D01*
X84668808Y-115324645D01*
X84671127Y-115245318D01*
X84672075Y-115146339D01*
X84672200Y-115072894D01*
X84672200Y-114745000D01*
X84824600Y-114745000D01*
X84824600Y-115761000D01*
X85027391Y-115761000D01*
X85030770Y-115418309D01*
X85034150Y-115075618D01*
X85298677Y-115418309D01*
X85563205Y-115761000D01*
X85764400Y-115761000D01*
X85764400Y-114745000D01*
X85916800Y-114745000D01*
X85916800Y-115761000D01*
X86111618Y-115761000D01*
X86200088Y-115760117D01*
X86269512Y-115757111D01*
X86326190Y-115751445D01*
X86376428Y-115742582D01*
X86403766Y-115736107D01*
X86517739Y-115696262D01*
X86613123Y-115639441D01*
X86690871Y-115564896D01*
X86751939Y-115471877D01*
X86759759Y-115456200D01*
X86777877Y-115416519D01*
X86789461Y-115383193D01*
X86795955Y-115348355D01*
X86798803Y-115304141D01*
X86799449Y-115242687D01*
X86799450Y-115240032D01*
X86798901Y-115178215D01*
X86796263Y-115133959D01*
X86790051Y-115099432D01*
X86778776Y-115066802D01*
X86760954Y-115028237D01*
X86758175Y-115022576D01*
X86699193Y-114930510D01*
X86622124Y-114855467D01*
X86528965Y-114798926D01*
X86421717Y-114762363D01*
X86399912Y-114757797D01*
X86363660Y-114753369D01*
X86308239Y-114749604D01*
X86239880Y-114746794D01*
X86164810Y-114745227D01*
X86124616Y-114745000D01*
X86932800Y-114745000D01*
X86932800Y-115761000D01*
X87605900Y-115761000D01*
X87605900Y-115583200D01*
X87136000Y-115583200D01*
X87136000Y-115316500D01*
X87491600Y-115316500D01*
X87491600Y-115138700D01*
X87136000Y-115138700D01*
X87136000Y-114922800D01*
X87567800Y-114922800D01*
X87567800Y-114745000D01*
X87707500Y-114745000D01*
X87707500Y-115761000D01*
X87910700Y-115761000D01*
X87910700Y-115354600D01*
X87952455Y-115354600D01*
X87967598Y-115355647D01*
X87981673Y-115360628D01*
X87997140Y-115372298D01*
X88016455Y-115393415D01*
X88042078Y-115426734D01*
X88076466Y-115475013D01*
X88122078Y-115541009D01*
X88133430Y-115557548D01*
X88272650Y-115760497D01*
X88390125Y-115760748D01*
X88441205Y-115760540D01*
X88481036Y-115759772D01*
X88504033Y-115758583D01*
X88507487Y-115757825D01*
X88500443Y-115747011D01*
X88480803Y-115718550D01*
X88450700Y-115675488D01*
X88412265Y-115620870D01*
X88367632Y-115557743D01*
X88349662Y-115532400D01*
X88191949Y-115310150D01*
X88225949Y-115292794D01*
X88257542Y-115270614D01*
X88501982Y-115270614D01*
X88514363Y-115370871D01*
X88545584Y-115467143D01*
X88595430Y-115556245D01*
X88663687Y-115634996D01*
X88750141Y-115700212D01*
X88790877Y-115722337D01*
X88899825Y-115763754D01*
X89011163Y-115781638D01*
X89129511Y-115776640D01*
X89152919Y-115773198D01*
X89207368Y-115760698D01*
X89269892Y-115740996D01*
X89321194Y-115720794D01*
X89409300Y-115681399D01*
X89409300Y-115189500D01*
X89053700Y-115189500D01*
X89053700Y-115367300D01*
X89218800Y-115367300D01*
X89218800Y-115468453D01*
X89217251Y-115523663D01*
X89209806Y-115560696D01*
X89192269Y-115583158D01*
X89160440Y-115594655D01*
X89110122Y-115598791D01*
X89066546Y-115599242D01*
X88967195Y-115588702D01*
X88880988Y-115558284D01*
X88809867Y-115509783D01*
X88755777Y-115444999D01*
X88720659Y-115365728D01*
X88706457Y-115273770D01*
X88706282Y-115265876D01*
X88711327Y-115184004D01*
X88730792Y-115116729D01*
X88767674Y-115055959D01*
X88796509Y-115022335D01*
X88868754Y-114963031D01*
X88953549Y-114925502D01*
X89049350Y-114910393D01*
X89065538Y-114910100D01*
X89135275Y-114916517D01*
X89212796Y-114933708D01*
X89286817Y-114958582D01*
X89342931Y-114986088D01*
X89373088Y-115002738D01*
X89394817Y-115011365D01*
X89397441Y-115011700D01*
X89403895Y-114999633D01*
X89407065Y-114965620D01*
X89406659Y-114913332D01*
X89402950Y-114814964D01*
X89355032Y-114792444D01*
X89249669Y-114754430D01*
X89197212Y-114745000D01*
X89561700Y-114745000D01*
X89561700Y-115761000D01*
X89764900Y-115761000D01*
X89764900Y-115354600D01*
X89807854Y-115354600D01*
X89823491Y-115355551D01*
X89837765Y-115360265D01*
X89853202Y-115371526D01*
X89872328Y-115392120D01*
X89897670Y-115424834D01*
X89931753Y-115472455D01*
X89977103Y-115537767D01*
X89987235Y-115552455D01*
X90030833Y-115614852D01*
X90070313Y-115669797D01*
X90103162Y-115713913D01*
X90126862Y-115743824D01*
X90138899Y-115756153D01*
X90139017Y-115756203D01*
X90158218Y-115758509D01*
X90195685Y-115759432D01*
X90244314Y-115758844D01*
X90259506Y-115758372D01*
X90364640Y-115754650D01*
X90215719Y-115545533D01*
X90170216Y-115481321D01*
X90129864Y-115423777D01*
X90096964Y-115376234D01*
X90073820Y-115342022D01*
X90062732Y-115324474D01*
X90062173Y-115323283D01*
X90069234Y-115309513D01*
X90092406Y-115289494D01*
X90104674Y-115281295D01*
X90358179Y-115281295D01*
X90372753Y-115383173D01*
X90406459Y-115480154D01*
X90458715Y-115568937D01*
X90528939Y-115646223D01*
X90616547Y-115708711D01*
X90650244Y-115726025D01*
X90746770Y-115763455D01*
X90837683Y-115780797D01*
X90931504Y-115779064D01*
X91000361Y-115767712D01*
X91056691Y-115752451D01*
X91113846Y-115731733D01*
X91149723Y-115715039D01*
X91216722Y-115668613D01*
X91282382Y-115605669D01*
X91339167Y-115534323D01*
X91375312Y-115472108D01*
X91390443Y-115437476D01*
X91400334Y-115406238D01*
X91406066Y-115371436D01*
X91408720Y-115326113D01*
X91409379Y-115263309D01*
X91409374Y-115253000D01*
X91408727Y-115187071D01*
X91406242Y-115139549D01*
X91400830Y-115103452D01*
X91391398Y-115071797D01*
X91376856Y-115037602D01*
X91375131Y-115033885D01*
X91317957Y-114939083D01*
X91244778Y-114861179D01*
X91158934Y-114800721D01*
X91063764Y-114758255D01*
X91007721Y-114745000D01*
X91541449Y-114745000D01*
X91545349Y-115103775D01*
X91549250Y-115462550D01*
X91584888Y-115535123D01*
X91640069Y-115620268D01*
X91711850Y-115688429D01*
X91796955Y-115738441D01*
X91892112Y-115769138D01*
X91994045Y-115779356D01*
X92099483Y-115767929D01*
X92113627Y-115763790D01*
X93688906Y-115763790D01*
X93920828Y-115757902D01*
X94008107Y-115755289D01*
X94074763Y-115752137D01*
X94125571Y-115747929D01*
X94165307Y-115742144D01*
X94198747Y-115734263D01*
X94228950Y-115724392D01*
X94338657Y-115673183D01*
X94428854Y-115606542D01*
X94498852Y-115525273D01*
X94547961Y-115430181D01*
X94575496Y-115322074D01*
X94576088Y-115317865D01*
X94580060Y-115203238D01*
X94560896Y-115096345D01*
X94520275Y-114999496D01*
X94459874Y-114915003D01*
X94381374Y-114845178D01*
X94286451Y-114792331D01*
X94176785Y-114758774D01*
X94168972Y-114757276D01*
X94131406Y-114752951D01*
X94074931Y-114749721D01*
X94006022Y-114747810D01*
X93931157Y-114747444D01*
X93897265Y-114747843D01*
X93695550Y-114751350D01*
X93688906Y-115763790D01*
X92113627Y-115763790D01*
X92123162Y-115761000D01*
X92597000Y-115761000D01*
X92799791Y-115761000D01*
X92803170Y-115416565D01*
X92806550Y-115072130D01*
X93073011Y-115416565D01*
X93339473Y-115761000D01*
X93536800Y-115761000D01*
X93536800Y-114745000D01*
X93346701Y-114745000D01*
X93343325Y-115095792D01*
X93339950Y-115446584D01*
X93072404Y-115098967D01*
X92804859Y-114751350D01*
X92700929Y-114747661D01*
X92597000Y-114743972D01*
X92597000Y-115761000D01*
X92123162Y-115761000D01*
X92176064Y-115745520D01*
X92240765Y-115711259D01*
X92305504Y-115659709D01*
X92362904Y-115597875D01*
X92405591Y-115532759D01*
X92410298Y-115523079D01*
X92418523Y-115504012D01*
X92425013Y-115484375D01*
X92430015Y-115460910D01*
X92433777Y-115430358D01*
X92436546Y-115389463D01*
X92438571Y-115334965D01*
X92440097Y-115263607D01*
X92441374Y-115172131D01*
X92442150Y-115103775D01*
X92446050Y-114745000D01*
X92256635Y-114745000D01*
X92251836Y-115065675D01*
X92249707Y-115178401D01*
X92246582Y-115268900D01*
X92241750Y-115340344D01*
X92234501Y-115395903D01*
X92224124Y-115438748D01*
X92209908Y-115472052D01*
X92191141Y-115498984D01*
X92167113Y-115522718D01*
X92145472Y-115540127D01*
X92118899Y-115558645D01*
X92093978Y-115569637D01*
X92062737Y-115575030D01*
X92017208Y-115576755D01*
X91993750Y-115576850D01*
X91940452Y-115576036D01*
X91904564Y-115572309D01*
X91878117Y-115563740D01*
X91853141Y-115548400D01*
X91842027Y-115540127D01*
X91813380Y-115516548D01*
X91790592Y-115492221D01*
X91772950Y-115463967D01*
X91759741Y-115428606D01*
X91750251Y-115382957D01*
X91743768Y-115323841D01*
X91739577Y-115248077D01*
X91736965Y-115152485D01*
X91735612Y-115065675D01*
X91731474Y-114745000D01*
X91541449Y-114745000D01*
X91007721Y-114745000D01*
X90962606Y-114734330D01*
X90858800Y-114729493D01*
X90755685Y-114744293D01*
X90656600Y-114779276D01*
X90564885Y-114834991D01*
X90502851Y-114890808D01*
X90435073Y-114979276D01*
X90388757Y-115076046D01*
X90363319Y-115177820D01*
X90358179Y-115281295D01*
X90104674Y-115281295D01*
X90108148Y-115278974D01*
X90170142Y-115228507D01*
X90210523Y-115165850D01*
X90230615Y-115088751D01*
X90232623Y-115066954D01*
X90229083Y-114979350D01*
X90205610Y-114905908D01*
X90161187Y-114843842D01*
X90145914Y-114829074D01*
X90108878Y-114800026D01*
X90067984Y-114778203D01*
X90019104Y-114762700D01*
X89958106Y-114752609D01*
X89880860Y-114747026D01*
X89783235Y-114745044D01*
X89762594Y-114745000D01*
X89561700Y-114745000D01*
X89197212Y-114745000D01*
X89137122Y-114734198D01*
X89022777Y-114731501D01*
X88912021Y-114746094D01*
X88810240Y-114777731D01*
X88730176Y-114820975D01*
X88645143Y-114893405D01*
X88580021Y-114977768D01*
X88534597Y-115070879D01*
X88508655Y-115169556D01*
X88501982Y-115270614D01*
X88257542Y-115270614D01*
X88294782Y-115244470D01*
X88343999Y-115181074D01*
X88372166Y-115105269D01*
X88377851Y-115019717D01*
X88377217Y-115011690D01*
X88362752Y-114935923D01*
X88332354Y-114875429D01*
X88282195Y-114823150D01*
X88269417Y-114813030D01*
X88232582Y-114789033D01*
X88190870Y-114771103D01*
X88140166Y-114758487D01*
X88076354Y-114750433D01*
X87995320Y-114746189D01*
X87897374Y-114745000D01*
X87707500Y-114745000D01*
X87567800Y-114745000D01*
X86932800Y-114745000D01*
X86124616Y-114745000D01*
X85916800Y-114745000D01*
X85764400Y-114745000D01*
X85561608Y-114745000D01*
X85558229Y-115090318D01*
X85554850Y-115435637D01*
X85289995Y-115090318D01*
X85025140Y-114745000D01*
X84824600Y-114745000D01*
X84672200Y-114745000D01*
X84481700Y-114745000D01*
X84481444Y-115008525D01*
X84480792Y-115093871D01*
X84479126Y-115176093D01*
X84476634Y-115249770D01*
X84473504Y-115309483D01*
X84469923Y-115349810D01*
X84469512Y-115352814D01*
X84447430Y-115437766D01*
X84408886Y-115503901D01*
X84354610Y-115550539D01*
X84285329Y-115577001D01*
X84222682Y-115583200D01*
X84144769Y-115575959D01*
X84083557Y-115552372D01*
X84034259Y-115509640D01*
X83994689Y-115449850D01*
X83986297Y-115432869D01*
X83979750Y-115414639D01*
X83974765Y-115391788D01*
X83971062Y-115360945D01*
X83968360Y-115318741D01*
X83966380Y-115261806D01*
X83964839Y-115186768D01*
X83963458Y-115090257D01*
X83963226Y-115072025D01*
X83959102Y-114745000D01*
X83754857Y-114745000D01*
X83173600Y-114745000D01*
X83173600Y-114262400D01*
X84405016Y-114262400D01*
X86197338Y-114262400D01*
X89181269Y-114262400D01*
X89487055Y-114262351D01*
X89780711Y-114262209D01*
X90061406Y-114261975D01*
X90328309Y-114261654D01*
X90580590Y-114261248D01*
X90817419Y-114260760D01*
X91037965Y-114260194D01*
X91241399Y-114259553D01*
X91426888Y-114258840D01*
X91593604Y-114258058D01*
X91740716Y-114257210D01*
X91867393Y-114256300D01*
X91972805Y-114255331D01*
X92056121Y-114254306D01*
X92116512Y-114253228D01*
X92153146Y-114252100D01*
X92165200Y-114250951D01*
X92160018Y-114229739D01*
X92145737Y-114190018D01*
X92124251Y-114136174D01*
X92097456Y-114072595D01*
X92067246Y-114003667D01*
X92035517Y-113933778D01*
X92004163Y-113867315D01*
X91975080Y-113808665D01*
X91969445Y-113797765D01*
X91830389Y-113558090D01*
X91671315Y-113332841D01*
X91493692Y-113123113D01*
X91298989Y-112930005D01*
X91088677Y-112754614D01*
X90864224Y-112598039D01*
X90627099Y-112461376D01*
X90378772Y-112345724D01*
X90120712Y-112252180D01*
X89854389Y-112181841D01*
X89788343Y-112168330D01*
X89669774Y-112147617D01*
X89556032Y-112132712D01*
X89440588Y-112123167D01*
X89316913Y-112118533D01*
X89178478Y-112118360D01*
X89087717Y-112120157D01*
X88842001Y-112134070D01*
X88612082Y-112163451D01*
X88392667Y-112209618D01*
X88178460Y-112273885D01*
X87964169Y-112357568D01*
X87775195Y-112446359D01*
X87525974Y-112585767D01*
X87293236Y-112744335D01*
X87077554Y-112921420D01*
X86879499Y-113116383D01*
X86699643Y-113328583D01*
X86538558Y-113557379D01*
X86396818Y-113802132D01*
X86274993Y-114062200D01*
X86229589Y-114176675D01*
X86197338Y-114262400D01*
X84405016Y-114262400D01*
X84412987Y-114227475D01*
X84504586Y-113877240D01*
X84616126Y-113542497D01*
X84747993Y-113222528D01*
X84900571Y-112916616D01*
X85074245Y-112624044D01*
X85269400Y-112344095D01*
X85486421Y-112076053D01*
X85681850Y-111863731D01*
X85940671Y-111615265D01*
X86211979Y-111388896D01*
X86495499Y-111184759D01*
X86790958Y-111002988D01*
X87098082Y-110843717D01*
X87416598Y-110707082D01*
X87746234Y-110593216D01*
X88086715Y-110502254D01*
X88437768Y-110434330D01*
X88647300Y-110405403D01*
X88732478Y-110397513D01*
X88836846Y-110391310D01*
X88955039Y-110386824D01*
X89081691Y-110384084D01*
X89211438Y-110383117D01*
X89338912Y-110383954D01*
G37*
X89338912Y-110383954D02*
X89458750Y-110386624D01*
X89565586Y-110391154D01*
X89654053Y-110397575D01*
X89676000Y-110399850D01*
X90034740Y-110452530D01*
X90383756Y-110528175D01*
X90722436Y-110626590D01*
X91050167Y-110747580D01*
X91366334Y-110890950D01*
X91587350Y-111008421D01*
X91667414Y-111055891D01*
X91761317Y-111115053D01*
X91863005Y-111181802D01*
X91966424Y-111252036D01*
X92065522Y-111321652D01*
X92154245Y-111386545D01*
X92219610Y-111437028D01*
X92487283Y-111667480D01*
X92736478Y-111914709D01*
X92966493Y-112177664D01*
X93176627Y-112455296D01*
X93366178Y-112746556D01*
X93534445Y-113050393D01*
X93680726Y-113365760D01*
X93804320Y-113691605D01*
X93872737Y-113910545D01*
X93893384Y-113984209D01*
X93912747Y-114056264D01*
X93929090Y-114120040D01*
X93940676Y-114168867D01*
X93943650Y-114183025D01*
X93959204Y-114262399D01*
X94567152Y-114262400D01*
X95175100Y-114262400D01*
X95175100Y-116243600D01*
X93959204Y-116243600D01*
X93943650Y-116322975D01*
X93928250Y-116391448D01*
X93905790Y-116477805D01*
X93878043Y-116576115D01*
X93846781Y-116680448D01*
X93813778Y-116784873D01*
X93780806Y-116883459D01*
X93752080Y-116963754D01*
X93711530Y-117066056D01*
X93661230Y-117182794D01*
X93604491Y-117306989D01*
X93544625Y-117431659D01*
X93484943Y-117549824D01*
X93428756Y-117654505D01*
X93403042Y-117699548D01*
X93214524Y-117996747D01*
X93006869Y-118278120D01*
X92781100Y-118542836D01*
X92538238Y-118790063D01*
X92279306Y-119018967D01*
X92005326Y-119228717D01*
X91717318Y-119418481D01*
X91416305Y-119587425D01*
X91103309Y-119734719D01*
X90779352Y-119859529D01*
X90731190Y-119875823D01*
X90498018Y-119948026D01*
X90272962Y-120006195D01*
X90046133Y-120052538D01*
X89807644Y-120089262D01*
X89733150Y-120098638D01*
X89675758Y-120104102D01*
X89599735Y-120109250D01*
X89509935Y-120113941D01*
X89411214Y-120118040D01*
X89308428Y-120121407D01*
X89206434Y-120123905D01*
X89110087Y-120125396D01*
X89024242Y-120125742D01*
X88953757Y-120124806D01*
X88903487Y-120122448D01*
X88901300Y-120122265D01*
X88732119Y-120106516D01*
X88582615Y-120089988D01*
X88447064Y-120071859D01*
X88319742Y-120051307D01*
X88194926Y-120027513D01*
X88101200Y-120007420D01*
X87768881Y-119920323D01*
X87445320Y-119809933D01*
X87131565Y-119677157D01*
X86828666Y-119522903D01*
X86537669Y-119348080D01*
X86259625Y-119153596D01*
X85995581Y-118940358D01*
X85746586Y-118709276D01*
X85513689Y-118461256D01*
X85297939Y-118197208D01*
X85100383Y-117918039D01*
X84922071Y-117624657D01*
X84764052Y-117317971D01*
X84627423Y-116999020D01*
X84545945Y-116768343D01*
X84471924Y-116516700D01*
X84412987Y-116278525D01*
X84405017Y-116243600D01*
X86198978Y-116243600D01*
X86242941Y-116360416D01*
X86350485Y-116612547D01*
X86478497Y-116851109D01*
X86627917Y-117077541D01*
X86799685Y-117293284D01*
X86970143Y-117475511D01*
X87161594Y-117653338D01*
X87357264Y-117808671D01*
X87561566Y-117944415D01*
X87778910Y-118063473D01*
X88013709Y-118168752D01*
X88037700Y-118178387D01*
X88189860Y-118232885D01*
X88358245Y-118282700D01*
X88533796Y-118325608D01*
X88707456Y-118359386D01*
X88863200Y-118381074D01*
X88907080Y-118384046D01*
X88970914Y-118386112D01*
X89049275Y-118387304D01*
X89136734Y-118387655D01*
X89227863Y-118387198D01*
X89317233Y-118385966D01*
X89399417Y-118383992D01*
X89468986Y-118381310D01*
X89520512Y-118377952D01*
X89529950Y-118377010D01*
X89804799Y-118333845D01*
X90075065Y-118266269D01*
X90338683Y-118175145D01*
X90593590Y-118061337D01*
X90837722Y-117925708D01*
X91069016Y-117769120D01*
X91169583Y-117691059D01*
X91354699Y-117526838D01*
X91530710Y-117342349D01*
X91693912Y-117142140D01*
X91840602Y-116930763D01*
X91967077Y-116712765D01*
X91969445Y-116708234D01*
X91997812Y-116651780D01*
X92028846Y-116586592D01*
X92060654Y-116517058D01*
X92091339Y-116447565D01*
X92119008Y-116382500D01*
X92141764Y-116326251D01*
X92157713Y-116283204D01*
X92164961Y-116257746D01*
X92165200Y-116255048D01*
X92152638Y-116253875D01*
X92115507Y-116252748D01*
X92054637Y-116251671D01*
X91970859Y-116250647D01*
X91865002Y-116249679D01*
X91737899Y-116248770D01*
X91590378Y-116247924D01*
X91423271Y-116247143D01*
X91237409Y-116246431D01*
X91033621Y-116245792D01*
X90812738Y-116245227D01*
X90575591Y-116244741D01*
X90323010Y-116244337D01*
X90055826Y-116244017D01*
X89774869Y-116243786D01*
X89480970Y-116243646D01*
X89182089Y-116243600D01*
X86198978Y-116243600D01*
X84405017Y-116243600D01*
X84405016Y-116243599D01*
X83789308Y-116243600D01*
X83173600Y-116243600D01*
X83173600Y-114745000D01*
X83754857Y-114745000D01*
X83760638Y-115084725D01*
X83762535Y-115188063D01*
X83764488Y-115269497D01*
X83766784Y-115332524D01*
X83769707Y-115380637D01*
X83773544Y-115417333D01*
X83778580Y-115446107D01*
X83785101Y-115470453D01*
X83793394Y-115493869D01*
X83794282Y-115496168D01*
X83842458Y-115587193D01*
X83908312Y-115662386D01*
X83988602Y-115720319D01*
X84080085Y-115759565D01*
X84179520Y-115778696D01*
X84283664Y-115776285D01*
X84380100Y-115754065D01*
X84453698Y-115719327D01*
X84523986Y-115668166D01*
X84581579Y-115607860D01*
X84597107Y-115585770D01*
X84618523Y-115550159D01*
X84635463Y-115516095D01*
X84648444Y-115480044D01*
X84657984Y-115438475D01*
X84664599Y-115387853D01*
X84668808Y-115324645D01*
X84671127Y-115245318D01*
X84672075Y-115146339D01*
X84672200Y-115072894D01*
X84672200Y-114745000D01*
X84824600Y-114745000D01*
X84824600Y-115761000D01*
X85027391Y-115761000D01*
X85030770Y-115418309D01*
X85034150Y-115075618D01*
X85298677Y-115418309D01*
X85563205Y-115761000D01*
X85764400Y-115761000D01*
X85764400Y-114745000D01*
X85916800Y-114745000D01*
X85916800Y-115761000D01*
X86111618Y-115761000D01*
X86200088Y-115760117D01*
X86269512Y-115757111D01*
X86326190Y-115751445D01*
X86376428Y-115742582D01*
X86403766Y-115736107D01*
X86517739Y-115696262D01*
X86613123Y-115639441D01*
X86690871Y-115564896D01*
X86751939Y-115471877D01*
X86759759Y-115456200D01*
X86777877Y-115416519D01*
X86789461Y-115383193D01*
X86795955Y-115348355D01*
X86798803Y-115304141D01*
X86799449Y-115242687D01*
X86799450Y-115240032D01*
X86798901Y-115178215D01*
X86796263Y-115133959D01*
X86790051Y-115099432D01*
X86778776Y-115066802D01*
X86760954Y-115028237D01*
X86758175Y-115022576D01*
X86699193Y-114930510D01*
X86622124Y-114855467D01*
X86528965Y-114798926D01*
X86421717Y-114762363D01*
X86399912Y-114757797D01*
X86363660Y-114753369D01*
X86308239Y-114749604D01*
X86239880Y-114746794D01*
X86164810Y-114745227D01*
X86124616Y-114745000D01*
X86932800Y-114745000D01*
X86932800Y-115761000D01*
X87605900Y-115761000D01*
X87605900Y-115583200D01*
X87136000Y-115583200D01*
X87136000Y-115316500D01*
X87491600Y-115316500D01*
X87491600Y-115138700D01*
X87136000Y-115138700D01*
X87136000Y-114922800D01*
X87567800Y-114922800D01*
X87567800Y-114745000D01*
X87707500Y-114745000D01*
X87707500Y-115761000D01*
X87910700Y-115761000D01*
X87910700Y-115354600D01*
X87952455Y-115354600D01*
X87967598Y-115355647D01*
X87981673Y-115360628D01*
X87997140Y-115372298D01*
X88016455Y-115393415D01*
X88042078Y-115426734D01*
X88076466Y-115475013D01*
X88122078Y-115541009D01*
X88133430Y-115557548D01*
X88272650Y-115760497D01*
X88390125Y-115760748D01*
X88441205Y-115760540D01*
X88481036Y-115759772D01*
X88504033Y-115758583D01*
X88507487Y-115757825D01*
X88500443Y-115747011D01*
X88480803Y-115718550D01*
X88450700Y-115675488D01*
X88412265Y-115620870D01*
X88367632Y-115557743D01*
X88349662Y-115532400D01*
X88191949Y-115310150D01*
X88225949Y-115292794D01*
X88257542Y-115270614D01*
X88501982Y-115270614D01*
X88514363Y-115370871D01*
X88545584Y-115467143D01*
X88595430Y-115556245D01*
X88663687Y-115634996D01*
X88750141Y-115700212D01*
X88790877Y-115722337D01*
X88899825Y-115763754D01*
X89011163Y-115781638D01*
X89129511Y-115776640D01*
X89152919Y-115773198D01*
X89207368Y-115760698D01*
X89269892Y-115740996D01*
X89321194Y-115720794D01*
X89409300Y-115681399D01*
X89409300Y-115189500D01*
X89053700Y-115189500D01*
X89053700Y-115367300D01*
X89218800Y-115367300D01*
X89218800Y-115468453D01*
X89217251Y-115523663D01*
X89209806Y-115560696D01*
X89192269Y-115583158D01*
X89160440Y-115594655D01*
X89110122Y-115598791D01*
X89066546Y-115599242D01*
X88967195Y-115588702D01*
X88880988Y-115558284D01*
X88809867Y-115509783D01*
X88755777Y-115444999D01*
X88720659Y-115365728D01*
X88706457Y-115273770D01*
X88706282Y-115265876D01*
X88711327Y-115184004D01*
X88730792Y-115116729D01*
X88767674Y-115055959D01*
X88796509Y-115022335D01*
X88868754Y-114963031D01*
X88953549Y-114925502D01*
X89049350Y-114910393D01*
X89065538Y-114910100D01*
X89135275Y-114916517D01*
X89212796Y-114933708D01*
X89286817Y-114958582D01*
X89342931Y-114986088D01*
X89373088Y-115002738D01*
X89394817Y-115011365D01*
X89397441Y-115011700D01*
X89403895Y-114999633D01*
X89407065Y-114965620D01*
X89406659Y-114913332D01*
X89402950Y-114814964D01*
X89355032Y-114792444D01*
X89249669Y-114754430D01*
X89197212Y-114745000D01*
X89561700Y-114745000D01*
X89561700Y-115761000D01*
X89764900Y-115761000D01*
X89764900Y-115354600D01*
X89807854Y-115354600D01*
X89823491Y-115355551D01*
X89837765Y-115360265D01*
X89853202Y-115371526D01*
X89872328Y-115392120D01*
X89897670Y-115424834D01*
X89931753Y-115472455D01*
X89977103Y-115537767D01*
X89987235Y-115552455D01*
X90030833Y-115614852D01*
X90070313Y-115669797D01*
X90103162Y-115713913D01*
X90126862Y-115743824D01*
X90138899Y-115756153D01*
X90139017Y-115756203D01*
X90158218Y-115758509D01*
X90195685Y-115759432D01*
X90244314Y-115758844D01*
X90259506Y-115758372D01*
X90364640Y-115754650D01*
X90215719Y-115545533D01*
X90170216Y-115481321D01*
X90129864Y-115423777D01*
X90096964Y-115376234D01*
X90073820Y-115342022D01*
X90062732Y-115324474D01*
X90062173Y-115323283D01*
X90069234Y-115309513D01*
X90092406Y-115289494D01*
X90104674Y-115281295D01*
X90358179Y-115281295D01*
X90372753Y-115383173D01*
X90406459Y-115480154D01*
X90458715Y-115568937D01*
X90528939Y-115646223D01*
X90616547Y-115708711D01*
X90650244Y-115726025D01*
X90746770Y-115763455D01*
X90837683Y-115780797D01*
X90931504Y-115779064D01*
X91000361Y-115767712D01*
X91056691Y-115752451D01*
X91113846Y-115731733D01*
X91149723Y-115715039D01*
X91216722Y-115668613D01*
X91282382Y-115605669D01*
X91339167Y-115534323D01*
X91375312Y-115472108D01*
X91390443Y-115437476D01*
X91400334Y-115406238D01*
X91406066Y-115371436D01*
X91408720Y-115326113D01*
X91409379Y-115263309D01*
X91409374Y-115253000D01*
X91408727Y-115187071D01*
X91406242Y-115139549D01*
X91400830Y-115103452D01*
X91391398Y-115071797D01*
X91376856Y-115037602D01*
X91375131Y-115033885D01*
X91317957Y-114939083D01*
X91244778Y-114861179D01*
X91158934Y-114800721D01*
X91063764Y-114758255D01*
X91007721Y-114745000D01*
X91541449Y-114745000D01*
X91545349Y-115103775D01*
X91549250Y-115462550D01*
X91584888Y-115535123D01*
X91640069Y-115620268D01*
X91711850Y-115688429D01*
X91796955Y-115738441D01*
X91892112Y-115769138D01*
X91994045Y-115779356D01*
X92099483Y-115767929D01*
X92113627Y-115763790D01*
X93688906Y-115763790D01*
X93920828Y-115757902D01*
X94008107Y-115755289D01*
X94074763Y-115752137D01*
X94125571Y-115747929D01*
X94165307Y-115742144D01*
X94198747Y-115734263D01*
X94228950Y-115724392D01*
X94338657Y-115673183D01*
X94428854Y-115606542D01*
X94498852Y-115525273D01*
X94547961Y-115430181D01*
X94575496Y-115322074D01*
X94576088Y-115317865D01*
X94580060Y-115203238D01*
X94560896Y-115096345D01*
X94520275Y-114999496D01*
X94459874Y-114915003D01*
X94381374Y-114845178D01*
X94286451Y-114792331D01*
X94176785Y-114758774D01*
X94168972Y-114757276D01*
X94131406Y-114752951D01*
X94074931Y-114749721D01*
X94006022Y-114747810D01*
X93931157Y-114747444D01*
X93897265Y-114747843D01*
X93695550Y-114751350D01*
X93688906Y-115763790D01*
X92113627Y-115763790D01*
X92123162Y-115761000D01*
X92597000Y-115761000D01*
X92799791Y-115761000D01*
X92803170Y-115416565D01*
X92806550Y-115072130D01*
X93073011Y-115416565D01*
X93339473Y-115761000D01*
X93536800Y-115761000D01*
X93536800Y-114745000D01*
X93346701Y-114745000D01*
X93343325Y-115095792D01*
X93339950Y-115446584D01*
X93072404Y-115098967D01*
X92804859Y-114751350D01*
X92700929Y-114747661D01*
X92597000Y-114743972D01*
X92597000Y-115761000D01*
X92123162Y-115761000D01*
X92176064Y-115745520D01*
X92240765Y-115711259D01*
X92305504Y-115659709D01*
X92362904Y-115597875D01*
X92405591Y-115532759D01*
X92410298Y-115523079D01*
X92418523Y-115504012D01*
X92425013Y-115484375D01*
X92430015Y-115460910D01*
X92433777Y-115430358D01*
X92436546Y-115389463D01*
X92438571Y-115334965D01*
X92440097Y-115263607D01*
X92441374Y-115172131D01*
X92442150Y-115103775D01*
X92446050Y-114745000D01*
X92256635Y-114745000D01*
X92251836Y-115065675D01*
X92249707Y-115178401D01*
X92246582Y-115268900D01*
X92241750Y-115340344D01*
X92234501Y-115395903D01*
X92224124Y-115438748D01*
X92209908Y-115472052D01*
X92191141Y-115498984D01*
X92167113Y-115522718D01*
X92145472Y-115540127D01*
X92118899Y-115558645D01*
X92093978Y-115569637D01*
X92062737Y-115575030D01*
X92017208Y-115576755D01*
X91993750Y-115576850D01*
X91940452Y-115576036D01*
X91904564Y-115572309D01*
X91878117Y-115563740D01*
X91853141Y-115548400D01*
X91842027Y-115540127D01*
X91813380Y-115516548D01*
X91790592Y-115492221D01*
X91772950Y-115463967D01*
X91759741Y-115428606D01*
X91750251Y-115382957D01*
X91743768Y-115323841D01*
X91739577Y-115248077D01*
X91736965Y-115152485D01*
X91735612Y-115065675D01*
X91731474Y-114745000D01*
X91541449Y-114745000D01*
X91007721Y-114745000D01*
X90962606Y-114734330D01*
X90858800Y-114729493D01*
X90755685Y-114744293D01*
X90656600Y-114779276D01*
X90564885Y-114834991D01*
X90502851Y-114890808D01*
X90435073Y-114979276D01*
X90388757Y-115076046D01*
X90363319Y-115177820D01*
X90358179Y-115281295D01*
X90104674Y-115281295D01*
X90108148Y-115278974D01*
X90170142Y-115228507D01*
X90210523Y-115165850D01*
X90230615Y-115088751D01*
X90232623Y-115066954D01*
X90229083Y-114979350D01*
X90205610Y-114905908D01*
X90161187Y-114843842D01*
X90145914Y-114829074D01*
X90108878Y-114800026D01*
X90067984Y-114778203D01*
X90019104Y-114762700D01*
X89958106Y-114752609D01*
X89880860Y-114747026D01*
X89783235Y-114745044D01*
X89762594Y-114745000D01*
X89561700Y-114745000D01*
X89197212Y-114745000D01*
X89137122Y-114734198D01*
X89022777Y-114731501D01*
X88912021Y-114746094D01*
X88810240Y-114777731D01*
X88730176Y-114820975D01*
X88645143Y-114893405D01*
X88580021Y-114977768D01*
X88534597Y-115070879D01*
X88508655Y-115169556D01*
X88501982Y-115270614D01*
X88257542Y-115270614D01*
X88294782Y-115244470D01*
X88343999Y-115181074D01*
X88372166Y-115105269D01*
X88377851Y-115019717D01*
X88377217Y-115011690D01*
X88362752Y-114935923D01*
X88332354Y-114875429D01*
X88282195Y-114823150D01*
X88269417Y-114813030D01*
X88232582Y-114789033D01*
X88190870Y-114771103D01*
X88140166Y-114758487D01*
X88076354Y-114750433D01*
X87995320Y-114746189D01*
X87897374Y-114745000D01*
X87707500Y-114745000D01*
X87567800Y-114745000D01*
X86932800Y-114745000D01*
X86124616Y-114745000D01*
X85916800Y-114745000D01*
X85764400Y-114745000D01*
X85561608Y-114745000D01*
X85558229Y-115090318D01*
X85554850Y-115435637D01*
X85289995Y-115090318D01*
X85025140Y-114745000D01*
X84824600Y-114745000D01*
X84672200Y-114745000D01*
X84481700Y-114745000D01*
X84481444Y-115008525D01*
X84480792Y-115093871D01*
X84479126Y-115176093D01*
X84476634Y-115249770D01*
X84473504Y-115309483D01*
X84469923Y-115349810D01*
X84469512Y-115352814D01*
X84447430Y-115437766D01*
X84408886Y-115503901D01*
X84354610Y-115550539D01*
X84285329Y-115577001D01*
X84222682Y-115583200D01*
X84144769Y-115575959D01*
X84083557Y-115552372D01*
X84034259Y-115509640D01*
X83994689Y-115449850D01*
X83986297Y-115432869D01*
X83979750Y-115414639D01*
X83974765Y-115391788D01*
X83971062Y-115360945D01*
X83968360Y-115318741D01*
X83966380Y-115261806D01*
X83964839Y-115186768D01*
X83963458Y-115090257D01*
X83963226Y-115072025D01*
X83959102Y-114745000D01*
X83754857Y-114745000D01*
X83173600Y-114745000D01*
X83173600Y-114262400D01*
X84405016Y-114262400D01*
X86197338Y-114262400D01*
X89181269Y-114262400D01*
X89487055Y-114262351D01*
X89780711Y-114262209D01*
X90061406Y-114261975D01*
X90328309Y-114261654D01*
X90580590Y-114261248D01*
X90817419Y-114260760D01*
X91037965Y-114260194D01*
X91241399Y-114259553D01*
X91426888Y-114258840D01*
X91593604Y-114258058D01*
X91740716Y-114257210D01*
X91867393Y-114256300D01*
X91972805Y-114255331D01*
X92056121Y-114254306D01*
X92116512Y-114253228D01*
X92153146Y-114252100D01*
X92165200Y-114250951D01*
X92160018Y-114229739D01*
X92145737Y-114190018D01*
X92124251Y-114136174D01*
X92097456Y-114072595D01*
X92067246Y-114003667D01*
X92035517Y-113933778D01*
X92004163Y-113867315D01*
X91975080Y-113808665D01*
X91969445Y-113797765D01*
X91830389Y-113558090D01*
X91671315Y-113332841D01*
X91493692Y-113123113D01*
X91298989Y-112930005D01*
X91088677Y-112754614D01*
X90864224Y-112598039D01*
X90627099Y-112461376D01*
X90378772Y-112345724D01*
X90120712Y-112252180D01*
X89854389Y-112181841D01*
X89788343Y-112168330D01*
X89669774Y-112147617D01*
X89556032Y-112132712D01*
X89440588Y-112123167D01*
X89316913Y-112118533D01*
X89178478Y-112118360D01*
X89087717Y-112120157D01*
X88842001Y-112134070D01*
X88612082Y-112163451D01*
X88392667Y-112209618D01*
X88178460Y-112273885D01*
X87964169Y-112357568D01*
X87775195Y-112446359D01*
X87525974Y-112585767D01*
X87293236Y-112744335D01*
X87077554Y-112921420D01*
X86879499Y-113116383D01*
X86699643Y-113328583D01*
X86538558Y-113557379D01*
X86396818Y-113802132D01*
X86274993Y-114062200D01*
X86229589Y-114176675D01*
X86197338Y-114262400D01*
X84405016Y-114262400D01*
X84412987Y-114227475D01*
X84504586Y-113877240D01*
X84616126Y-113542497D01*
X84747993Y-113222528D01*
X84900571Y-112916616D01*
X85074245Y-112624044D01*
X85269400Y-112344095D01*
X85486421Y-112076053D01*
X85681850Y-111863731D01*
X85940671Y-111615265D01*
X86211979Y-111388896D01*
X86495499Y-111184759D01*
X86790958Y-111002988D01*
X87098082Y-110843717D01*
X87416598Y-110707082D01*
X87746234Y-110593216D01*
X88086715Y-110502254D01*
X88437768Y-110434330D01*
X88647300Y-110405403D01*
X88732478Y-110397513D01*
X88836846Y-110391310D01*
X88955039Y-110386824D01*
X89081691Y-110384084D01*
X89211438Y-110383117D01*
X89338912Y-110383954D01*
D14*
G04 #@! TO.C,D5*
X57515000Y-104177000D02*
X57515000Y-108077000D01*
X55515000Y-104177000D02*
X55515000Y-108077000D01*
X57515000Y-104177000D02*
X55515000Y-104177000D01*
G04 #@! TO.C,D3*
X96125000Y-108855000D02*
X100025000Y-108855000D01*
X96125000Y-110855000D02*
X100025000Y-110855000D01*
X96125000Y-108855000D02*
X96125000Y-110855000D01*
G04 #@! TO.C,D2*
X53249000Y-112538000D02*
X57149000Y-112538000D01*
X53249000Y-114538000D02*
X57149000Y-114538000D01*
X53249000Y-112538000D02*
X53249000Y-114538000D01*
G04 #@! TO.C,C5*
X66394000Y-68379748D02*
X66394000Y-68902252D01*
X64924000Y-68379748D02*
X64924000Y-68902252D01*
G04 #@! TO.C,C12*
X101373000Y-69268748D02*
X101373000Y-69791252D01*
X102843000Y-69268748D02*
X102843000Y-69791252D01*
G04 #@! TO.C,D1*
X60437500Y-97465000D02*
X57752500Y-97465000D01*
X60437500Y-99385000D02*
X60437500Y-97465000D01*
X57752500Y-99385000D02*
X60437500Y-99385000D01*
G04 #@! TO.C,Q3*
X55607000Y-68854000D02*
X54347000Y-68854000D01*
X48787000Y-68854000D02*
X50047000Y-68854000D01*
X55607000Y-72614000D02*
X55607000Y-68854000D01*
X48787000Y-74864000D02*
X48787000Y-68854000D01*
G04 #@! TO.C,R1*
X58597436Y-95858000D02*
X59051564Y-95858000D01*
X58597436Y-94388000D02*
X59051564Y-94388000D01*
G04 #@! TO.C,R8*
X106072000Y-64846564D02*
X106072000Y-64392436D01*
X107542000Y-64846564D02*
X107542000Y-64392436D01*
G04 #@! TO.C,R9*
X102843000Y-64893564D02*
X102843000Y-64439436D01*
X101373000Y-64893564D02*
X101373000Y-64439436D01*
G04 #@! TO.C,R10*
X50549436Y-77443000D02*
X51003564Y-77443000D01*
X50549436Y-75973000D02*
X51003564Y-75973000D01*
G04 #@! TO.C,R11*
X50930436Y-57685000D02*
X51384564Y-57685000D01*
X50930436Y-59155000D02*
X51384564Y-59155000D01*
G04 #@! TO.C,U1*
X45532000Y-93096000D02*
X51542000Y-93096000D01*
X47782000Y-99916000D02*
X51542000Y-99916000D01*
X51542000Y-93096000D02*
X51542000Y-94356000D01*
X51542000Y-99916000D02*
X51542000Y-98656000D01*
G04 #@! TO.C,U2*
X45532000Y-104667000D02*
X51542000Y-104667000D01*
X47782000Y-111487000D02*
X51542000Y-111487000D01*
X51542000Y-104667000D02*
X51542000Y-105927000D01*
X51542000Y-111487000D02*
X51542000Y-110227000D01*
G04 #@! TO.C,U3*
D10*
X99556095Y-87755380D02*
X99556095Y-88564904D01*
X99603714Y-88660142D01*
X99651333Y-88707761D01*
X99746571Y-88755380D01*
X99937047Y-88755380D01*
X100032285Y-88707761D01*
X100079904Y-88660142D01*
X100127523Y-88564904D01*
X100127523Y-87755380D01*
X100508476Y-87755380D02*
X101127523Y-87755380D01*
X100794190Y-88136333D01*
X100937047Y-88136333D01*
X101032285Y-88183952D01*
X101079904Y-88231571D01*
X101127523Y-88326809D01*
X101127523Y-88564904D01*
X101079904Y-88660142D01*
X101032285Y-88707761D01*
X100937047Y-88755380D01*
X100651333Y-88755380D01*
X100556095Y-88707761D01*
X100508476Y-88660142D01*
G04 #@! TO.C,C11*
X105725142Y-84360142D02*
X105677523Y-84407761D01*
X105534666Y-84455380D01*
X105439428Y-84455380D01*
X105296571Y-84407761D01*
X105201333Y-84312523D01*
X105153714Y-84217285D01*
X105106095Y-84026809D01*
X105106095Y-83883952D01*
X105153714Y-83693476D01*
X105201333Y-83598238D01*
X105296571Y-83503000D01*
X105439428Y-83455380D01*
X105534666Y-83455380D01*
X105677523Y-83503000D01*
X105725142Y-83550619D01*
X106677523Y-84455380D02*
X106106095Y-84455380D01*
X106391809Y-84455380D02*
X106391809Y-83455380D01*
X106296571Y-83598238D01*
X106201333Y-83693476D01*
X106106095Y-83741095D01*
X107629904Y-84455380D02*
X107058476Y-84455380D01*
X107344190Y-84455380D02*
X107344190Y-83455380D01*
X107248952Y-83598238D01*
X107153714Y-83693476D01*
X107058476Y-83741095D01*
G04 #@! TO.C,USB1*
X106550380Y-96371095D02*
X107359904Y-96371095D01*
X107455142Y-96323476D01*
X107502761Y-96275857D01*
X107550380Y-96180619D01*
X107550380Y-95990142D01*
X107502761Y-95894904D01*
X107455142Y-95847285D01*
X107359904Y-95799666D01*
X106550380Y-95799666D01*
X107502761Y-95371095D02*
X107550380Y-95228238D01*
X107550380Y-94990142D01*
X107502761Y-94894904D01*
X107455142Y-94847285D01*
X107359904Y-94799666D01*
X107264666Y-94799666D01*
X107169428Y-94847285D01*
X107121809Y-94894904D01*
X107074190Y-94990142D01*
X107026571Y-95180619D01*
X106978952Y-95275857D01*
X106931333Y-95323476D01*
X106836095Y-95371095D01*
X106740857Y-95371095D01*
X106645619Y-95323476D01*
X106598000Y-95275857D01*
X106550380Y-95180619D01*
X106550380Y-94942523D01*
X106598000Y-94799666D01*
X107026571Y-94037761D02*
X107074190Y-93894904D01*
X107121809Y-93847285D01*
X107217047Y-93799666D01*
X107359904Y-93799666D01*
X107455142Y-93847285D01*
X107502761Y-93894904D01*
X107550380Y-93990142D01*
X107550380Y-94371095D01*
X106550380Y-94371095D01*
X106550380Y-94037761D01*
X106598000Y-93942523D01*
X106645619Y-93894904D01*
X106740857Y-93847285D01*
X106836095Y-93847285D01*
X106931333Y-93894904D01*
X106978952Y-93942523D01*
X107026571Y-94037761D01*
X107026571Y-94371095D01*
X107550380Y-92847285D02*
X107550380Y-93418714D01*
X107550380Y-93133000D02*
X106550380Y-93133000D01*
X106693238Y-93228238D01*
X106788476Y-93323476D01*
X106836095Y-93418714D01*
G04 #@! TO.C,R4*
X114070380Y-87632166D02*
X113594190Y-87965500D01*
X114070380Y-88203595D02*
X113070380Y-88203595D01*
X113070380Y-87822642D01*
X113118000Y-87727404D01*
X113165619Y-87679785D01*
X113260857Y-87632166D01*
X113403714Y-87632166D01*
X113498952Y-87679785D01*
X113546571Y-87727404D01*
X113594190Y-87822642D01*
X113594190Y-88203595D01*
X113403714Y-86775023D02*
X114070380Y-86775023D01*
X113022761Y-87013119D02*
X113737047Y-87251214D01*
X113737047Y-86632166D01*
G04 #@! TO.C,R3*
X110870380Y-102032166D02*
X110394190Y-102365500D01*
X110870380Y-102603595D02*
X109870380Y-102603595D01*
X109870380Y-102222642D01*
X109918000Y-102127404D01*
X109965619Y-102079785D01*
X110060857Y-102032166D01*
X110203714Y-102032166D01*
X110298952Y-102079785D01*
X110346571Y-102127404D01*
X110394190Y-102222642D01*
X110394190Y-102603595D01*
X109870380Y-101698833D02*
X109870380Y-101079785D01*
X110251333Y-101413119D01*
X110251333Y-101270261D01*
X110298952Y-101175023D01*
X110346571Y-101127404D01*
X110441809Y-101079785D01*
X110679904Y-101079785D01*
X110775142Y-101127404D01*
X110822761Y-101175023D01*
X110870380Y-101270261D01*
X110870380Y-101555976D01*
X110822761Y-101651214D01*
X110775142Y-101698833D01*
G04 #@! TO.C,Q1*
D17*
X98497047Y-85748476D02*
X98376095Y-85688000D01*
X98255142Y-85567047D01*
X98073714Y-85385619D01*
X97952761Y-85325142D01*
X97831809Y-85325142D01*
X97892285Y-85627523D02*
X97771333Y-85567047D01*
X97650380Y-85446095D01*
X97589904Y-85204190D01*
X97589904Y-84780857D01*
X97650380Y-84538952D01*
X97771333Y-84418000D01*
X97892285Y-84357523D01*
X98134190Y-84357523D01*
X98255142Y-84418000D01*
X98376095Y-84538952D01*
X98436571Y-84780857D01*
X98436571Y-85204190D01*
X98376095Y-85446095D01*
X98255142Y-85567047D01*
X98134190Y-85627523D01*
X97892285Y-85627523D01*
X99646095Y-85627523D02*
X98920380Y-85627523D01*
X99283238Y-85627523D02*
X99283238Y-84357523D01*
X99162285Y-84538952D01*
X99041333Y-84659904D01*
X98920380Y-84720380D01*
G04 #@! TO.C,C10*
D10*
X107905142Y-89445857D02*
X107952761Y-89493476D01*
X108000380Y-89636333D01*
X108000380Y-89731571D01*
X107952761Y-89874428D01*
X107857523Y-89969666D01*
X107762285Y-90017285D01*
X107571809Y-90064904D01*
X107428952Y-90064904D01*
X107238476Y-90017285D01*
X107143238Y-89969666D01*
X107048000Y-89874428D01*
X107000380Y-89731571D01*
X107000380Y-89636333D01*
X107048000Y-89493476D01*
X107095619Y-89445857D01*
X108000380Y-88493476D02*
X108000380Y-89064904D01*
X108000380Y-88779190D02*
X107000380Y-88779190D01*
X107143238Y-88874428D01*
X107238476Y-88969666D01*
X107286095Y-89064904D01*
X107000380Y-87874428D02*
X107000380Y-87779190D01*
X107048000Y-87683952D01*
X107095619Y-87636333D01*
X107190857Y-87588714D01*
X107381333Y-87541095D01*
X107619428Y-87541095D01*
X107809904Y-87588714D01*
X107905142Y-87636333D01*
X107952761Y-87683952D01*
X108000380Y-87779190D01*
X108000380Y-87874428D01*
X107952761Y-87969666D01*
X107905142Y-88017285D01*
X107809904Y-88064904D01*
X107619428Y-88112523D01*
X107381333Y-88112523D01*
X107190857Y-88064904D01*
X107095619Y-88017285D01*
X107048000Y-87969666D01*
X107000380Y-87874428D01*
G04 #@! TO.C,C4*
X61845142Y-68819666D02*
X61892761Y-68867285D01*
X61940380Y-69010142D01*
X61940380Y-69105380D01*
X61892761Y-69248238D01*
X61797523Y-69343476D01*
X61702285Y-69391095D01*
X61511809Y-69438714D01*
X61368952Y-69438714D01*
X61178476Y-69391095D01*
X61083238Y-69343476D01*
X60988000Y-69248238D01*
X60940380Y-69105380D01*
X60940380Y-69010142D01*
X60988000Y-68867285D01*
X61035619Y-68819666D01*
X61273714Y-67962523D02*
X61940380Y-67962523D01*
X60892761Y-68200619D02*
X61607047Y-68438714D01*
X61607047Y-67819666D01*
G04 #@! TO.C,H4*
X44831095Y-120158380D02*
X44831095Y-119158380D01*
X44831095Y-119634571D02*
X45402523Y-119634571D01*
X45402523Y-120158380D02*
X45402523Y-119158380D01*
X46307285Y-119491714D02*
X46307285Y-120158380D01*
X46069190Y-119110761D02*
X45831095Y-119825047D01*
X46450142Y-119825047D01*
G04 #@! TO.C,H3*
X109806095Y-54880380D02*
X109806095Y-53880380D01*
X109806095Y-54356571D02*
X110377523Y-54356571D01*
X110377523Y-54880380D02*
X110377523Y-53880380D01*
X110758476Y-53880380D02*
X111377523Y-53880380D01*
X111044190Y-54261333D01*
X111187047Y-54261333D01*
X111282285Y-54308952D01*
X111329904Y-54356571D01*
X111377523Y-54451809D01*
X111377523Y-54689904D01*
X111329904Y-54785142D01*
X111282285Y-54832761D01*
X111187047Y-54880380D01*
X110901333Y-54880380D01*
X110806095Y-54832761D01*
X110758476Y-54785142D01*
G04 #@! TO.C,H2*
X110109095Y-120158380D02*
X110109095Y-119158380D01*
X110109095Y-119634571D02*
X110680523Y-119634571D01*
X110680523Y-120158380D02*
X110680523Y-119158380D01*
X111109095Y-119253619D02*
X111156714Y-119206000D01*
X111251952Y-119158380D01*
X111490047Y-119158380D01*
X111585285Y-119206000D01*
X111632904Y-119253619D01*
X111680523Y-119348857D01*
X111680523Y-119444095D01*
X111632904Y-119586952D01*
X111061476Y-120158380D01*
X111680523Y-120158380D01*
G04 #@! TO.C,H1*
X44450095Y-54753380D02*
X44450095Y-53753380D01*
X44450095Y-54229571D02*
X45021523Y-54229571D01*
X45021523Y-54753380D02*
X45021523Y-53753380D01*
X46021523Y-54753380D02*
X45450095Y-54753380D01*
X45735809Y-54753380D02*
X45735809Y-53753380D01*
X45640571Y-53896238D01*
X45545333Y-53991476D01*
X45450095Y-54039095D01*
G04 #@! TO.C,C6*
X108098333Y-75697142D02*
X108050714Y-75744761D01*
X107907857Y-75792380D01*
X107812619Y-75792380D01*
X107669761Y-75744761D01*
X107574523Y-75649523D01*
X107526904Y-75554285D01*
X107479285Y-75363809D01*
X107479285Y-75220952D01*
X107526904Y-75030476D01*
X107574523Y-74935238D01*
X107669761Y-74840000D01*
X107812619Y-74792380D01*
X107907857Y-74792380D01*
X108050714Y-74840000D01*
X108098333Y-74887619D01*
X108955476Y-74792380D02*
X108765000Y-74792380D01*
X108669761Y-74840000D01*
X108622142Y-74887619D01*
X108526904Y-75030476D01*
X108479285Y-75220952D01*
X108479285Y-75601904D01*
X108526904Y-75697142D01*
X108574523Y-75744761D01*
X108669761Y-75792380D01*
X108860238Y-75792380D01*
X108955476Y-75744761D01*
X109003095Y-75697142D01*
X109050714Y-75601904D01*
X109050714Y-75363809D01*
X109003095Y-75268571D01*
X108955476Y-75220952D01*
X108860238Y-75173333D01*
X108669761Y-75173333D01*
X108574523Y-75220952D01*
X108526904Y-75268571D01*
X108479285Y-75363809D01*
G04 #@! TO.C,ANT1*
D17*
X76429809Y-67267666D02*
X77034571Y-67267666D01*
X76308857Y-67630523D02*
X76732190Y-66360523D01*
X77155523Y-67630523D01*
X77578857Y-67630523D02*
X77578857Y-66360523D01*
X78304571Y-67630523D01*
X78304571Y-66360523D01*
X78727904Y-66360523D02*
X79453619Y-66360523D01*
X79090761Y-67630523D02*
X79090761Y-66360523D01*
X80542190Y-67630523D02*
X79816476Y-67630523D01*
X80179333Y-67630523D02*
X80179333Y-66360523D01*
X80058380Y-66541952D01*
X79937428Y-66662904D01*
X79816476Y-66723380D01*
G04 #@! TO.C,IC2*
X101122238Y-78044523D02*
X101122238Y-76774523D01*
X102452714Y-77923571D02*
X102392238Y-77984047D01*
X102210809Y-78044523D01*
X102089857Y-78044523D01*
X101908428Y-77984047D01*
X101787476Y-77863095D01*
X101727000Y-77742142D01*
X101666523Y-77500238D01*
X101666523Y-77318809D01*
X101727000Y-77076904D01*
X101787476Y-76955952D01*
X101908428Y-76835000D01*
X102089857Y-76774523D01*
X102210809Y-76774523D01*
X102392238Y-76835000D01*
X102452714Y-76895476D01*
X102936523Y-76895476D02*
X102997000Y-76835000D01*
X103117952Y-76774523D01*
X103420333Y-76774523D01*
X103541285Y-76835000D01*
X103601761Y-76895476D01*
X103662238Y-77016428D01*
X103662238Y-77137380D01*
X103601761Y-77318809D01*
X102876047Y-78044523D01*
X103662238Y-78044523D01*
G04 #@! TO.C,R12*
D10*
X63976642Y-76653380D02*
X63643309Y-76177190D01*
X63405214Y-76653380D02*
X63405214Y-75653380D01*
X63786166Y-75653380D01*
X63881404Y-75701000D01*
X63929023Y-75748619D01*
X63976642Y-75843857D01*
X63976642Y-75986714D01*
X63929023Y-76081952D01*
X63881404Y-76129571D01*
X63786166Y-76177190D01*
X63405214Y-76177190D01*
X64929023Y-76653380D02*
X64357595Y-76653380D01*
X64643309Y-76653380D02*
X64643309Y-75653380D01*
X64548071Y-75796238D01*
X64452833Y-75891476D01*
X64357595Y-75939095D01*
X65309976Y-75748619D02*
X65357595Y-75701000D01*
X65452833Y-75653380D01*
X65690928Y-75653380D01*
X65786166Y-75701000D01*
X65833785Y-75748619D01*
X65881404Y-75843857D01*
X65881404Y-75939095D01*
X65833785Y-76081952D01*
X65262357Y-76653380D01*
X65881404Y-76653380D01*
G04 #@! TO.C,D4*
X63953404Y-84271380D02*
X63953404Y-83271380D01*
X64191500Y-83271380D01*
X64334357Y-83319000D01*
X64429595Y-83414238D01*
X64477214Y-83509476D01*
X64524833Y-83699952D01*
X64524833Y-83842809D01*
X64477214Y-84033285D01*
X64429595Y-84128523D01*
X64334357Y-84223761D01*
X64191500Y-84271380D01*
X63953404Y-84271380D01*
X65381976Y-83604714D02*
X65381976Y-84271380D01*
X65143880Y-83223761D02*
X64905785Y-83938047D01*
X65524833Y-83938047D01*
G04 #@! TO.C,S2*
D17*
X78000380Y-92614047D02*
X78181809Y-92674523D01*
X78484190Y-92674523D01*
X78605142Y-92614047D01*
X78665619Y-92553571D01*
X78726095Y-92432619D01*
X78726095Y-92311666D01*
X78665619Y-92190714D01*
X78605142Y-92130238D01*
X78484190Y-92069761D01*
X78242285Y-92009285D01*
X78121333Y-91948809D01*
X78060857Y-91888333D01*
X78000380Y-91767380D01*
X78000380Y-91646428D01*
X78060857Y-91525476D01*
X78121333Y-91465000D01*
X78242285Y-91404523D01*
X78544666Y-91404523D01*
X78726095Y-91465000D01*
X79209904Y-91525476D02*
X79270380Y-91465000D01*
X79391333Y-91404523D01*
X79693714Y-91404523D01*
X79814666Y-91465000D01*
X79875142Y-91525476D01*
X79935619Y-91646428D01*
X79935619Y-91767380D01*
X79875142Y-91948809D01*
X79149428Y-92674523D01*
X79935619Y-92674523D01*
D10*
X77123476Y-97996523D02*
X76700142Y-97391761D01*
X76397761Y-97996523D02*
X76397761Y-96726523D01*
X76881571Y-96726523D01*
X77002523Y-96787000D01*
X77063000Y-96847476D01*
X77123476Y-96968428D01*
X77123476Y-97149857D01*
X77063000Y-97270809D01*
X77002523Y-97331285D01*
X76881571Y-97391761D01*
X76397761Y-97391761D01*
X77667761Y-97331285D02*
X78091095Y-97331285D01*
X78272523Y-97996523D02*
X77667761Y-97996523D01*
X77667761Y-96726523D01*
X78272523Y-96726523D01*
X78756333Y-97936047D02*
X78937761Y-97996523D01*
X79240142Y-97996523D01*
X79361095Y-97936047D01*
X79421571Y-97875571D01*
X79482047Y-97754619D01*
X79482047Y-97633666D01*
X79421571Y-97512714D01*
X79361095Y-97452238D01*
X79240142Y-97391761D01*
X78998238Y-97331285D01*
X78877285Y-97270809D01*
X78816809Y-97210333D01*
X78756333Y-97089380D01*
X78756333Y-96968428D01*
X78816809Y-96847476D01*
X78877285Y-96787000D01*
X78998238Y-96726523D01*
X79300619Y-96726523D01*
X79482047Y-96787000D01*
X80026333Y-97331285D02*
X80449666Y-97331285D01*
X80631095Y-97996523D02*
X80026333Y-97996523D01*
X80026333Y-96726523D01*
X80631095Y-96726523D01*
X80993952Y-96726523D02*
X81719666Y-96726523D01*
X81356809Y-97996523D02*
X81356809Y-96726523D01*
G04 #@! TO.C,J1*
X70432380Y-121999333D02*
X71146666Y-121999333D01*
X71289523Y-122046952D01*
X71384761Y-122142190D01*
X71432380Y-122285047D01*
X71432380Y-122380285D01*
X71432380Y-120999333D02*
X71432380Y-121570761D01*
X71432380Y-121285047D02*
X70432380Y-121285047D01*
X70575238Y-121380285D01*
X70670476Y-121475523D01*
X70718095Y-121570761D01*
G04 #@! TO.C,C3*
X46762333Y-92588142D02*
X46714714Y-92635761D01*
X46571857Y-92683380D01*
X46476619Y-92683380D01*
X46333761Y-92635761D01*
X46238523Y-92540523D01*
X46190904Y-92445285D01*
X46143285Y-92254809D01*
X46143285Y-92111952D01*
X46190904Y-91921476D01*
X46238523Y-91826238D01*
X46333761Y-91731000D01*
X46476619Y-91683380D01*
X46571857Y-91683380D01*
X46714714Y-91731000D01*
X46762333Y-91778619D01*
X47095666Y-91683380D02*
X47714714Y-91683380D01*
X47381380Y-92064333D01*
X47524238Y-92064333D01*
X47619476Y-92111952D01*
X47667095Y-92159571D01*
X47714714Y-92254809D01*
X47714714Y-92492904D01*
X47667095Y-92588142D01*
X47619476Y-92635761D01*
X47524238Y-92683380D01*
X47238523Y-92683380D01*
X47143285Y-92635761D01*
X47095666Y-92588142D01*
G04 #@! TO.C,R2*
X61032380Y-72834166D02*
X60556190Y-73167500D01*
X61032380Y-73405595D02*
X60032380Y-73405595D01*
X60032380Y-73024642D01*
X60080000Y-72929404D01*
X60127619Y-72881785D01*
X60222857Y-72834166D01*
X60365714Y-72834166D01*
X60460952Y-72881785D01*
X60508571Y-72929404D01*
X60556190Y-73024642D01*
X60556190Y-73405595D01*
X60127619Y-72453214D02*
X60080000Y-72405595D01*
X60032380Y-72310357D01*
X60032380Y-72072261D01*
X60080000Y-71977023D01*
X60127619Y-71929404D01*
X60222857Y-71881785D01*
X60318095Y-71881785D01*
X60460952Y-71929404D01*
X61032380Y-72500833D01*
X61032380Y-71881785D01*
G04 #@! TO.C,C8*
X67696142Y-72871666D02*
X67743761Y-72919285D01*
X67791380Y-73062142D01*
X67791380Y-73157380D01*
X67743761Y-73300238D01*
X67648523Y-73395476D01*
X67553285Y-73443095D01*
X67362809Y-73490714D01*
X67219952Y-73490714D01*
X67029476Y-73443095D01*
X66934238Y-73395476D01*
X66839000Y-73300238D01*
X66791380Y-73157380D01*
X66791380Y-73062142D01*
X66839000Y-72919285D01*
X66886619Y-72871666D01*
X67219952Y-72300238D02*
X67172333Y-72395476D01*
X67124714Y-72443095D01*
X67029476Y-72490714D01*
X66981857Y-72490714D01*
X66886619Y-72443095D01*
X66839000Y-72395476D01*
X66791380Y-72300238D01*
X66791380Y-72109761D01*
X66839000Y-72014523D01*
X66886619Y-71966904D01*
X66981857Y-71919285D01*
X67029476Y-71919285D01*
X67124714Y-71966904D01*
X67172333Y-72014523D01*
X67219952Y-72109761D01*
X67219952Y-72300238D01*
X67267571Y-72395476D01*
X67315190Y-72443095D01*
X67410428Y-72490714D01*
X67600904Y-72490714D01*
X67696142Y-72443095D01*
X67743761Y-72395476D01*
X67791380Y-72300238D01*
X67791380Y-72109761D01*
X67743761Y-72014523D01*
X67696142Y-71966904D01*
X67600904Y-71919285D01*
X67410428Y-71919285D01*
X67315190Y-71966904D01*
X67267571Y-72014523D01*
X67219952Y-72109761D01*
G04 #@! TO.C,C2*
X46762333Y-115575142D02*
X46714714Y-115622761D01*
X46571857Y-115670380D01*
X46476619Y-115670380D01*
X46333761Y-115622761D01*
X46238523Y-115527523D01*
X46190904Y-115432285D01*
X46143285Y-115241809D01*
X46143285Y-115098952D01*
X46190904Y-114908476D01*
X46238523Y-114813238D01*
X46333761Y-114718000D01*
X46476619Y-114670380D01*
X46571857Y-114670380D01*
X46714714Y-114718000D01*
X46762333Y-114765619D01*
X47143285Y-114765619D02*
X47190904Y-114718000D01*
X47286142Y-114670380D01*
X47524238Y-114670380D01*
X47619476Y-114718000D01*
X47667095Y-114765619D01*
X47714714Y-114860857D01*
X47714714Y-114956095D01*
X47667095Y-115098952D01*
X47095666Y-115670380D01*
X47714714Y-115670380D01*
G04 #@! TO.C,C1*
X46762333Y-104018142D02*
X46714714Y-104065761D01*
X46571857Y-104113380D01*
X46476619Y-104113380D01*
X46333761Y-104065761D01*
X46238523Y-103970523D01*
X46190904Y-103875285D01*
X46143285Y-103684809D01*
X46143285Y-103541952D01*
X46190904Y-103351476D01*
X46238523Y-103256238D01*
X46333761Y-103161000D01*
X46476619Y-103113380D01*
X46571857Y-103113380D01*
X46714714Y-103161000D01*
X46762333Y-103208619D01*
X47714714Y-104113380D02*
X47143285Y-104113380D01*
X47429000Y-104113380D02*
X47429000Y-103113380D01*
X47333761Y-103256238D01*
X47238523Y-103351476D01*
X47143285Y-103399095D01*
G04 #@! TO.C,F1*
X104768666Y-107963571D02*
X104435333Y-107963571D01*
X104435333Y-108487380D02*
X104435333Y-107487380D01*
X104911523Y-107487380D01*
X105816285Y-108487380D02*
X105244857Y-108487380D01*
X105530571Y-108487380D02*
X105530571Y-107487380D01*
X105435333Y-107630238D01*
X105340095Y-107725476D01*
X105244857Y-107773095D01*
G04 #@! TO.C,D5*
X58967380Y-107165095D02*
X57967380Y-107165095D01*
X57967380Y-106927000D01*
X58015000Y-106784142D01*
X58110238Y-106688904D01*
X58205476Y-106641285D01*
X58395952Y-106593666D01*
X58538809Y-106593666D01*
X58729285Y-106641285D01*
X58824523Y-106688904D01*
X58919761Y-106784142D01*
X58967380Y-106927000D01*
X58967380Y-107165095D01*
X57967380Y-105688904D02*
X57967380Y-106165095D01*
X58443571Y-106212714D01*
X58395952Y-106165095D01*
X58348333Y-106069857D01*
X58348333Y-105831761D01*
X58395952Y-105736523D01*
X58443571Y-105688904D01*
X58538809Y-105641285D01*
X58776904Y-105641285D01*
X58872142Y-105688904D01*
X58919761Y-105736523D01*
X58967380Y-105831761D01*
X58967380Y-106069857D01*
X58919761Y-106165095D01*
X58872142Y-106212714D01*
G04 #@! TO.C,D3*
X97636904Y-108307380D02*
X97636904Y-107307380D01*
X97875000Y-107307380D01*
X98017857Y-107355000D01*
X98113095Y-107450238D01*
X98160714Y-107545476D01*
X98208333Y-107735952D01*
X98208333Y-107878809D01*
X98160714Y-108069285D01*
X98113095Y-108164523D01*
X98017857Y-108259761D01*
X97875000Y-108307380D01*
X97636904Y-108307380D01*
X98541666Y-107307380D02*
X99160714Y-107307380D01*
X98827380Y-107688333D01*
X98970238Y-107688333D01*
X99065476Y-107735952D01*
X99113095Y-107783571D01*
X99160714Y-107878809D01*
X99160714Y-108116904D01*
X99113095Y-108212142D01*
X99065476Y-108259761D01*
X98970238Y-108307380D01*
X98684523Y-108307380D01*
X98589285Y-108259761D01*
X98541666Y-108212142D01*
G04 #@! TO.C,D2*
X54760904Y-111990380D02*
X54760904Y-110990380D01*
X54999000Y-110990380D01*
X55141857Y-111038000D01*
X55237095Y-111133238D01*
X55284714Y-111228476D01*
X55332333Y-111418952D01*
X55332333Y-111561809D01*
X55284714Y-111752285D01*
X55237095Y-111847523D01*
X55141857Y-111942761D01*
X54999000Y-111990380D01*
X54760904Y-111990380D01*
X55713285Y-111085619D02*
X55760904Y-111038000D01*
X55856142Y-110990380D01*
X56094238Y-110990380D01*
X56189476Y-111038000D01*
X56237095Y-111085619D01*
X56284714Y-111180857D01*
X56284714Y-111276095D01*
X56237095Y-111418952D01*
X55665666Y-111990380D01*
X56284714Y-111990380D01*
G04 #@! TO.C,C5*
X67696142Y-68807666D02*
X67743761Y-68855285D01*
X67791380Y-68998142D01*
X67791380Y-69093380D01*
X67743761Y-69236238D01*
X67648523Y-69331476D01*
X67553285Y-69379095D01*
X67362809Y-69426714D01*
X67219952Y-69426714D01*
X67029476Y-69379095D01*
X66934238Y-69331476D01*
X66839000Y-69236238D01*
X66791380Y-69093380D01*
X66791380Y-68998142D01*
X66839000Y-68855285D01*
X66886619Y-68807666D01*
X66791380Y-67902904D02*
X66791380Y-68379095D01*
X67267571Y-68426714D01*
X67219952Y-68379095D01*
X67172333Y-68283857D01*
X67172333Y-68045761D01*
X67219952Y-67950523D01*
X67267571Y-67902904D01*
X67362809Y-67855285D01*
X67600904Y-67855285D01*
X67696142Y-67902904D01*
X67743761Y-67950523D01*
X67791380Y-68045761D01*
X67791380Y-68283857D01*
X67743761Y-68379095D01*
X67696142Y-68426714D01*
G04 #@! TO.C,C12*
X104145142Y-70172857D02*
X104192761Y-70220476D01*
X104240380Y-70363333D01*
X104240380Y-70458571D01*
X104192761Y-70601428D01*
X104097523Y-70696666D01*
X104002285Y-70744285D01*
X103811809Y-70791904D01*
X103668952Y-70791904D01*
X103478476Y-70744285D01*
X103383238Y-70696666D01*
X103288000Y-70601428D01*
X103240380Y-70458571D01*
X103240380Y-70363333D01*
X103288000Y-70220476D01*
X103335619Y-70172857D01*
X104240380Y-69220476D02*
X104240380Y-69791904D01*
X104240380Y-69506190D02*
X103240380Y-69506190D01*
X103383238Y-69601428D01*
X103478476Y-69696666D01*
X103526095Y-69791904D01*
X103335619Y-68839523D02*
X103288000Y-68791904D01*
X103240380Y-68696666D01*
X103240380Y-68458571D01*
X103288000Y-68363333D01*
X103335619Y-68315714D01*
X103430857Y-68268095D01*
X103526095Y-68268095D01*
X103668952Y-68315714D01*
X104240380Y-68887142D01*
X104240380Y-68268095D01*
G04 #@! TO.C,D1*
X58014404Y-100527380D02*
X58014404Y-99527380D01*
X58252500Y-99527380D01*
X58395357Y-99575000D01*
X58490595Y-99670238D01*
X58538214Y-99765476D01*
X58585833Y-99955952D01*
X58585833Y-100098809D01*
X58538214Y-100289285D01*
X58490595Y-100384523D01*
X58395357Y-100479761D01*
X58252500Y-100527380D01*
X58014404Y-100527380D01*
X59538214Y-100527380D02*
X58966785Y-100527380D01*
X59252500Y-100527380D02*
X59252500Y-99527380D01*
X59157261Y-99670238D01*
X59062023Y-99765476D01*
X58966785Y-99813095D01*
G04 #@! TO.C,J3*
X57846666Y-55622380D02*
X57846666Y-56336666D01*
X57799047Y-56479523D01*
X57703809Y-56574761D01*
X57560952Y-56622380D01*
X57465714Y-56622380D01*
X58227619Y-55622380D02*
X58846666Y-55622380D01*
X58513333Y-56003333D01*
X58656190Y-56003333D01*
X58751428Y-56050952D01*
X58799047Y-56098571D01*
X58846666Y-56193809D01*
X58846666Y-56431904D01*
X58799047Y-56527142D01*
X58751428Y-56574761D01*
X58656190Y-56622380D01*
X58370476Y-56622380D01*
X58275238Y-56574761D01*
X58227619Y-56527142D01*
X53094571Y-61412380D02*
X52618380Y-61412380D01*
X52618380Y-60412380D01*
X53427904Y-60888571D02*
X53761238Y-60888571D01*
X53904095Y-61412380D02*
X53427904Y-61412380D01*
X53427904Y-60412380D01*
X53904095Y-60412380D01*
X54332666Y-61412380D02*
X54332666Y-60412380D01*
X54570761Y-60412380D01*
X54713619Y-60460000D01*
X54808857Y-60555238D01*
X54856476Y-60650476D01*
X54904095Y-60840952D01*
X54904095Y-60983809D01*
X54856476Y-61174285D01*
X54808857Y-61269523D01*
X54713619Y-61364761D01*
X54570761Y-61412380D01*
X54332666Y-61412380D01*
X55094571Y-61507619D02*
X55856476Y-61507619D01*
X56666000Y-61412380D02*
X56332666Y-60936190D01*
X56094571Y-61412380D02*
X56094571Y-60412380D01*
X56475523Y-60412380D01*
X56570761Y-60460000D01*
X56618380Y-60507619D01*
X56666000Y-60602857D01*
X56666000Y-60745714D01*
X56618380Y-60840952D01*
X56570761Y-60888571D01*
X56475523Y-60936190D01*
X56094571Y-60936190D01*
X57094571Y-61412380D02*
X57094571Y-60412380D01*
X57570761Y-61412380D02*
X57570761Y-60412380D01*
X58142190Y-61412380D01*
X58142190Y-60412380D01*
X59142190Y-60460000D02*
X59046952Y-60412380D01*
X58904095Y-60412380D01*
X58761238Y-60460000D01*
X58666000Y-60555238D01*
X58618380Y-60650476D01*
X58570761Y-60840952D01*
X58570761Y-60983809D01*
X58618380Y-61174285D01*
X58666000Y-61269523D01*
X58761238Y-61364761D01*
X58904095Y-61412380D01*
X58999333Y-61412380D01*
X59142190Y-61364761D01*
X59189809Y-61317142D01*
X59189809Y-60983809D01*
X58999333Y-60983809D01*
X59380285Y-61507619D02*
X60142190Y-61507619D01*
X60380285Y-61412380D02*
X60380285Y-60412380D01*
X60761238Y-60412380D01*
X60856476Y-60460000D01*
X60904095Y-60507619D01*
X60951714Y-60602857D01*
X60951714Y-60745714D01*
X60904095Y-60840952D01*
X60856476Y-60888571D01*
X60761238Y-60936190D01*
X60380285Y-60936190D01*
X61332666Y-61126666D02*
X61808857Y-61126666D01*
X61237428Y-61412380D02*
X61570761Y-60412380D01*
X61904095Y-61412380D01*
X62237428Y-61412380D02*
X62237428Y-60412380D01*
X62475523Y-60412380D01*
X62618380Y-60460000D01*
X62713619Y-60555238D01*
X62761238Y-60650476D01*
X62808857Y-60840952D01*
X62808857Y-60983809D01*
X62761238Y-61174285D01*
X62713619Y-61269523D01*
X62618380Y-61364761D01*
X62475523Y-61412380D01*
X62237428Y-61412380D01*
X63189809Y-61364761D02*
X63332666Y-61412380D01*
X63570761Y-61412380D01*
X63666000Y-61364761D01*
X63713619Y-61317142D01*
X63761238Y-61221904D01*
X63761238Y-61126666D01*
X63713619Y-61031428D01*
X63666000Y-60983809D01*
X63570761Y-60936190D01*
X63380285Y-60888571D01*
X63285047Y-60840952D01*
X63237428Y-60793333D01*
X63189809Y-60698095D01*
X63189809Y-60602857D01*
X63237428Y-60507619D01*
X63285047Y-60460000D01*
X63380285Y-60412380D01*
X63618380Y-60412380D01*
X63761238Y-60460000D01*
G04 #@! TO.C,Q3*
X48244619Y-70859238D02*
X48197000Y-70954476D01*
X48101761Y-71049714D01*
X47958904Y-71192571D01*
X47911285Y-71287809D01*
X47911285Y-71383047D01*
X48149380Y-71335428D02*
X48101761Y-71430666D01*
X48006523Y-71525904D01*
X47816047Y-71573523D01*
X47482714Y-71573523D01*
X47292238Y-71525904D01*
X47197000Y-71430666D01*
X47149380Y-71335428D01*
X47149380Y-71144952D01*
X47197000Y-71049714D01*
X47292238Y-70954476D01*
X47482714Y-70906857D01*
X47816047Y-70906857D01*
X48006523Y-70954476D01*
X48101761Y-71049714D01*
X48149380Y-71144952D01*
X48149380Y-71335428D01*
X47149380Y-70573523D02*
X47149380Y-69954476D01*
X47530333Y-70287809D01*
X47530333Y-70144952D01*
X47577952Y-70049714D01*
X47625571Y-70002095D01*
X47720809Y-69954476D01*
X47958904Y-69954476D01*
X48054142Y-70002095D01*
X48101761Y-70049714D01*
X48149380Y-70144952D01*
X48149380Y-70430666D01*
X48101761Y-70525904D01*
X48054142Y-70573523D01*
G04 #@! TO.C,R1*
X58657833Y-93925380D02*
X58324500Y-93449190D01*
X58086404Y-93925380D02*
X58086404Y-92925380D01*
X58467357Y-92925380D01*
X58562595Y-92973000D01*
X58610214Y-93020619D01*
X58657833Y-93115857D01*
X58657833Y-93258714D01*
X58610214Y-93353952D01*
X58562595Y-93401571D01*
X58467357Y-93449190D01*
X58086404Y-93449190D01*
X59610214Y-93925380D02*
X59038785Y-93925380D01*
X59324500Y-93925380D02*
X59324500Y-92925380D01*
X59229261Y-93068238D01*
X59134023Y-93163476D01*
X59038785Y-93211095D01*
G04 #@! TO.C,R8*
X105609380Y-64786166D02*
X105133190Y-65119500D01*
X105609380Y-65357595D02*
X104609380Y-65357595D01*
X104609380Y-64976642D01*
X104657000Y-64881404D01*
X104704619Y-64833785D01*
X104799857Y-64786166D01*
X104942714Y-64786166D01*
X105037952Y-64833785D01*
X105085571Y-64881404D01*
X105133190Y-64976642D01*
X105133190Y-65357595D01*
X105037952Y-64214738D02*
X104990333Y-64309976D01*
X104942714Y-64357595D01*
X104847476Y-64405214D01*
X104799857Y-64405214D01*
X104704619Y-64357595D01*
X104657000Y-64309976D01*
X104609380Y-64214738D01*
X104609380Y-64024261D01*
X104657000Y-63929023D01*
X104704619Y-63881404D01*
X104799857Y-63833785D01*
X104847476Y-63833785D01*
X104942714Y-63881404D01*
X104990333Y-63929023D01*
X105037952Y-64024261D01*
X105037952Y-64214738D01*
X105085571Y-64309976D01*
X105133190Y-64357595D01*
X105228428Y-64405214D01*
X105418904Y-64405214D01*
X105514142Y-64357595D01*
X105561761Y-64309976D01*
X105609380Y-64214738D01*
X105609380Y-64024261D01*
X105561761Y-63929023D01*
X105514142Y-63881404D01*
X105418904Y-63833785D01*
X105228428Y-63833785D01*
X105133190Y-63881404D01*
X105085571Y-63929023D01*
X105037952Y-64024261D01*
G04 #@! TO.C,R9*
X100910380Y-64833166D02*
X100434190Y-65166500D01*
X100910380Y-65404595D02*
X99910380Y-65404595D01*
X99910380Y-65023642D01*
X99958000Y-64928404D01*
X100005619Y-64880785D01*
X100100857Y-64833166D01*
X100243714Y-64833166D01*
X100338952Y-64880785D01*
X100386571Y-64928404D01*
X100434190Y-65023642D01*
X100434190Y-65404595D01*
X100910380Y-64356976D02*
X100910380Y-64166500D01*
X100862761Y-64071261D01*
X100815142Y-64023642D01*
X100672285Y-63928404D01*
X100481809Y-63880785D01*
X100100857Y-63880785D01*
X100005619Y-63928404D01*
X99958000Y-63976023D01*
X99910380Y-64071261D01*
X99910380Y-64261738D01*
X99958000Y-64356976D01*
X100005619Y-64404595D01*
X100100857Y-64452214D01*
X100338952Y-64452214D01*
X100434190Y-64404595D01*
X100481809Y-64356976D01*
X100529428Y-64261738D01*
X100529428Y-64071261D01*
X100481809Y-63976023D01*
X100434190Y-63928404D01*
X100338952Y-63880785D01*
G04 #@! TO.C,R10*
X50157142Y-78811380D02*
X49823809Y-78335190D01*
X49585714Y-78811380D02*
X49585714Y-77811380D01*
X49966666Y-77811380D01*
X50061904Y-77859000D01*
X50109523Y-77906619D01*
X50157142Y-78001857D01*
X50157142Y-78144714D01*
X50109523Y-78239952D01*
X50061904Y-78287571D01*
X49966666Y-78335190D01*
X49585714Y-78335190D01*
X51109523Y-78811380D02*
X50538095Y-78811380D01*
X50823809Y-78811380D02*
X50823809Y-77811380D01*
X50728571Y-77954238D01*
X50633333Y-78049476D01*
X50538095Y-78097095D01*
X51728571Y-77811380D02*
X51823809Y-77811380D01*
X51919047Y-77859000D01*
X51966666Y-77906619D01*
X52014285Y-78001857D01*
X52061904Y-78192333D01*
X52061904Y-78430428D01*
X52014285Y-78620904D01*
X51966666Y-78716142D01*
X51919047Y-78763761D01*
X51823809Y-78811380D01*
X51728571Y-78811380D01*
X51633333Y-78763761D01*
X51585714Y-78716142D01*
X51538095Y-78620904D01*
X51490476Y-78430428D01*
X51490476Y-78192333D01*
X51538095Y-78001857D01*
X51585714Y-77906619D01*
X51633333Y-77859000D01*
X51728571Y-77811380D01*
G04 #@! TO.C,R11*
X50514642Y-57222380D02*
X50181309Y-56746190D01*
X49943214Y-57222380D02*
X49943214Y-56222380D01*
X50324166Y-56222380D01*
X50419404Y-56270000D01*
X50467023Y-56317619D01*
X50514642Y-56412857D01*
X50514642Y-56555714D01*
X50467023Y-56650952D01*
X50419404Y-56698571D01*
X50324166Y-56746190D01*
X49943214Y-56746190D01*
X51467023Y-57222380D02*
X50895595Y-57222380D01*
X51181309Y-57222380D02*
X51181309Y-56222380D01*
X51086071Y-56365238D01*
X50990833Y-56460476D01*
X50895595Y-56508095D01*
X52419404Y-57222380D02*
X51847976Y-57222380D01*
X52133690Y-57222380D02*
X52133690Y-56222380D01*
X52038452Y-56365238D01*
X51943214Y-56460476D01*
X51847976Y-56508095D01*
G04 #@! TO.C,SW3*
X98691866Y-57770661D02*
X98834723Y-57818280D01*
X99072819Y-57818280D01*
X99168057Y-57770661D01*
X99215676Y-57723042D01*
X99263295Y-57627804D01*
X99263295Y-57532566D01*
X99215676Y-57437328D01*
X99168057Y-57389709D01*
X99072819Y-57342090D01*
X98882342Y-57294471D01*
X98787104Y-57246852D01*
X98739485Y-57199233D01*
X98691866Y-57103995D01*
X98691866Y-57008757D01*
X98739485Y-56913519D01*
X98787104Y-56865900D01*
X98882342Y-56818280D01*
X99120438Y-56818280D01*
X99263295Y-56865900D01*
X99596628Y-56818280D02*
X99834723Y-57818280D01*
X100025200Y-57103995D01*
X100215676Y-57818280D01*
X100453771Y-56818280D01*
X100739485Y-56818280D02*
X101358533Y-56818280D01*
X101025200Y-57199233D01*
X101168057Y-57199233D01*
X101263295Y-57246852D01*
X101310914Y-57294471D01*
X101358533Y-57389709D01*
X101358533Y-57627804D01*
X101310914Y-57723042D01*
X101263295Y-57770661D01*
X101168057Y-57818280D01*
X100882342Y-57818280D01*
X100787104Y-57770661D01*
X100739485Y-57723042D01*
X95071204Y-62682380D02*
X95071204Y-61682380D01*
X95404538Y-62396666D01*
X95737871Y-61682380D01*
X95737871Y-62682380D01*
X96166442Y-62396666D02*
X96642633Y-62396666D01*
X96071204Y-62682380D02*
X96404538Y-61682380D01*
X96737871Y-62682380D01*
X97071204Y-62682380D02*
X97071204Y-61682380D01*
X97547395Y-62682380D02*
X97547395Y-61682380D01*
X98118823Y-62682380D01*
X98118823Y-61682380D01*
X98356919Y-62777619D02*
X99118823Y-62777619D01*
X99690252Y-62158571D02*
X99833109Y-62206190D01*
X99880728Y-62253809D01*
X99928347Y-62349047D01*
X99928347Y-62491904D01*
X99880728Y-62587142D01*
X99833109Y-62634761D01*
X99737871Y-62682380D01*
X99356919Y-62682380D01*
X99356919Y-61682380D01*
X99690252Y-61682380D01*
X99785490Y-61730000D01*
X99833109Y-61777619D01*
X99880728Y-61872857D01*
X99880728Y-61968095D01*
X99833109Y-62063333D01*
X99785490Y-62110952D01*
X99690252Y-62158571D01*
X99356919Y-62158571D01*
X100356919Y-61682380D02*
X100356919Y-62491904D01*
X100404538Y-62587142D01*
X100452157Y-62634761D01*
X100547395Y-62682380D01*
X100737871Y-62682380D01*
X100833109Y-62634761D01*
X100880728Y-62587142D01*
X100928347Y-62491904D01*
X100928347Y-61682380D01*
X101261680Y-61682380D02*
X101833109Y-61682380D01*
X101547395Y-62682380D02*
X101547395Y-61682380D01*
X102023585Y-61682380D02*
X102595014Y-61682380D01*
X102309300Y-62682380D02*
X102309300Y-61682380D01*
X103118823Y-61682380D02*
X103309300Y-61682380D01*
X103404538Y-61730000D01*
X103499776Y-61825238D01*
X103547395Y-62015714D01*
X103547395Y-62349047D01*
X103499776Y-62539523D01*
X103404538Y-62634761D01*
X103309300Y-62682380D01*
X103118823Y-62682380D01*
X103023585Y-62634761D01*
X102928347Y-62539523D01*
X102880728Y-62349047D01*
X102880728Y-62015714D01*
X102928347Y-61825238D01*
X103023585Y-61730000D01*
X103118823Y-61682380D01*
X103975966Y-62682380D02*
X103975966Y-61682380D01*
X104547395Y-62682380D01*
X104547395Y-61682380D01*
G04 #@! TO.C,U1*
X48870095Y-91458380D02*
X48870095Y-92267904D01*
X48917714Y-92363142D01*
X48965333Y-92410761D01*
X49060571Y-92458380D01*
X49251047Y-92458380D01*
X49346285Y-92410761D01*
X49393904Y-92363142D01*
X49441523Y-92267904D01*
X49441523Y-91458380D01*
X50441523Y-92458380D02*
X49870095Y-92458380D01*
X50155809Y-92458380D02*
X50155809Y-91458380D01*
X50060571Y-91601238D01*
X49965333Y-91696476D01*
X49870095Y-91744095D01*
G04 #@! TO.C,U2*
X48870095Y-103029380D02*
X48870095Y-103838904D01*
X48917714Y-103934142D01*
X48965333Y-103981761D01*
X49060571Y-104029380D01*
X49251047Y-104029380D01*
X49346285Y-103981761D01*
X49393904Y-103934142D01*
X49441523Y-103838904D01*
X49441523Y-103029380D01*
X49870095Y-103124619D02*
X49917714Y-103077000D01*
X50012952Y-103029380D01*
X50251047Y-103029380D01*
X50346285Y-103077000D01*
X50393904Y-103124619D01*
X50441523Y-103219857D01*
X50441523Y-103315095D01*
X50393904Y-103457952D01*
X49822476Y-104029380D01*
X50441523Y-104029380D01*
G04 #@! TD*
M02*
