G04 #@! TF.GenerationSoftware,KiCad,Pcbnew,(5.1.8)-1*
G04 #@! TF.CreationDate,2021-05-16T14:51:20+01:00*
G04 #@! TF.ProjectId,jubileev2,6a756269-6c65-4657-9632-2e6b69636164,rev?*
G04 #@! TF.SameCoordinates,Original*
G04 #@! TF.FileFunction,Copper,L2,Bot*
G04 #@! TF.FilePolarity,Positive*
%FSLAX46Y46*%
G04 Gerber Fmt 4.6, Leading zero omitted, Abs format (unit mm)*
G04 Created by KiCad (PCBNEW (5.1.8)-1) date 2021-05-16 14:51:20*
%MOMM*%
%LPD*%
G01*
G04 APERTURE LIST*
G04 #@! TA.AperFunction,ComponentPad*
%ADD10O,2.100000X1.000000*%
G04 #@! TD*
G04 #@! TA.AperFunction,ComponentPad*
%ADD11O,1.600000X1.000000*%
G04 #@! TD*
G04 #@! TA.AperFunction,ConnectorPad*
%ADD12C,7.000000*%
G04 #@! TD*
G04 #@! TA.AperFunction,ComponentPad*
%ADD13C,3.900000*%
G04 #@! TD*
G04 #@! TA.AperFunction,ComponentPad*
%ADD14C,1.638000*%
G04 #@! TD*
G04 #@! TA.AperFunction,ComponentPad*
%ADD15R,2.000000X4.500000*%
G04 #@! TD*
G04 #@! TA.AperFunction,ComponentPad*
%ADD16R,4.500000X2.000000*%
G04 #@! TD*
G04 #@! TA.AperFunction,ComponentPad*
%ADD17C,2.100000*%
G04 #@! TD*
G04 #@! TA.AperFunction,ViaPad*
%ADD18C,0.800000*%
G04 #@! TD*
G04 #@! TA.AperFunction,Conductor*
%ADD19C,1.000000*%
G04 #@! TD*
G04 #@! TA.AperFunction,Conductor*
%ADD20C,0.250000*%
G04 #@! TD*
G04 APERTURE END LIST*
D10*
G04 #@! TO.P,USB1,13*
G04 #@! TO.N,GND*
X109568000Y-98953000D03*
X109568000Y-90313000D03*
D11*
X113748000Y-98953000D03*
X113748000Y-90313000D03*
G04 #@! TD*
D12*
G04 #@! TO.P,H4,1*
G04 #@! TO.N,GND*
X45593000Y-124206000D03*
D13*
X45593000Y-124206000D03*
G04 #@! TD*
D12*
G04 #@! TO.P,H3,1*
G04 #@! TO.N,GND*
X110568000Y-58928000D03*
D13*
X110568000Y-58928000D03*
G04 #@! TD*
D12*
G04 #@! TO.P,H2,1*
G04 #@! TO.N,GND*
X110871000Y-124206000D03*
D13*
X110871000Y-124206000D03*
G04 #@! TD*
D12*
G04 #@! TO.P,H1,1*
G04 #@! TO.N,GND*
X45212000Y-58801000D03*
D13*
X45212000Y-58801000D03*
G04 #@! TD*
D14*
G04 #@! TO.P,S2,2*
G04 #@! TO.N,EN*
X78968000Y-89548000D03*
G04 #@! TO.P,S2,1*
G04 #@! TO.N,GND*
X78968000Y-94653000D03*
G04 #@! TD*
D15*
G04 #@! TO.P,J1,2*
G04 #@! TO.N,GND*
X61880000Y-121666000D03*
G04 #@! TO.P,J1,1*
G04 #@! TO.N,Net-(D2-Pad2)*
X55880000Y-121666000D03*
D16*
G04 #@! TO.P,J1,3*
G04 #@! TO.N,GND*
X58880000Y-116966000D03*
G04 #@! TD*
D17*
G04 #@! TO.P,J3,2*
G04 #@! TO.N,Net-(J3-Pad2)*
X60480000Y-58420000D03*
G04 #@! TO.P,J3,1*
G04 #@! TO.N,Net-(J3-Pad1)*
G04 #@! TA.AperFunction,ComponentPad*
G36*
G01*
X54830000Y-59220001D02*
X54830000Y-57619999D01*
G75*
G02*
X55079999Y-57370000I249999J0D01*
G01*
X56680001Y-57370000D01*
G75*
G02*
X56930000Y-57619999I0J-249999D01*
G01*
X56930000Y-59220001D01*
G75*
G02*
X56680001Y-59470000I-249999J0D01*
G01*
X55079999Y-59470000D01*
G75*
G02*
X54830000Y-59220001I0J249999D01*
G01*
G37*
G04 #@! TD.AperFunction*
G04 #@! TD*
G04 #@! TO.P,SW3,1*
G04 #@! TO.N,Net-(R8-Pad2)*
G04 #@! TA.AperFunction,ComponentPad*
G36*
G01*
X103158000Y-58889999D02*
X103158000Y-60490001D01*
G75*
G02*
X102908001Y-60740000I-249999J0D01*
G01*
X101307999Y-60740000D01*
G75*
G02*
X101058000Y-60490001I0J249999D01*
G01*
X101058000Y-58889999D01*
G75*
G02*
X101307999Y-58640000I249999J0D01*
G01*
X102908001Y-58640000D01*
G75*
G02*
X103158000Y-58889999I0J-249999D01*
G01*
G37*
G04 #@! TD.AperFunction*
G04 #@! TO.P,SW3,2*
G04 #@! TO.N,GND*
X97508000Y-59690000D03*
G04 #@! TD*
D18*
G04 #@! TO.N,+3V3*
X67945000Y-83820000D03*
X107315000Y-83693000D03*
X99868000Y-91553000D03*
X103868000Y-87953000D03*
G04 #@! TO.N,EN*
X101068000Y-86578000D03*
X85868000Y-85653000D03*
G04 #@! TO.N,DTR*
X96168000Y-88578000D03*
X96168000Y-87128000D03*
G04 #@! TO.N,LED_RING*
X59182000Y-76708000D03*
X82804000Y-67691000D03*
G04 #@! TO.N,ESP_RXD*
X89699000Y-89853000D03*
X92168000Y-91053000D03*
G04 #@! TO.N,Net-(F1-Pad2)*
X106468000Y-98053000D03*
X106468000Y-93853000D03*
G04 #@! TO.N,GND*
X67818000Y-72771000D03*
X73152000Y-72771000D03*
X67437000Y-82169000D03*
X72771000Y-80645000D03*
X82968000Y-81153000D03*
X91821000Y-81026000D03*
X67945000Y-86995000D03*
X54768000Y-93753000D03*
X55668000Y-93753000D03*
X56568000Y-93753000D03*
X54568000Y-90153000D03*
X55468000Y-90153000D03*
X56368000Y-90153000D03*
X60868000Y-100853000D03*
X58668000Y-103653000D03*
X64468000Y-99753000D03*
X61668000Y-70253000D03*
X58618000Y-68453000D03*
X93668000Y-89453000D03*
X93568000Y-86353000D03*
G04 #@! TO.N,IO0*
X87868000Y-86753000D03*
X91368000Y-87853000D03*
G04 #@! TD*
D19*
G04 #@! TO.N,+3V3*
X107188000Y-83820000D02*
X107315000Y-83693000D01*
X67945000Y-83820000D02*
X107188000Y-83820000D01*
X99868000Y-91553000D02*
X99868000Y-90053000D01*
X99868000Y-90053000D02*
X101968000Y-87953000D01*
X101968000Y-87953000D02*
X103868000Y-87953000D01*
D20*
G04 #@! TO.N,EN*
X100143000Y-85653000D02*
X99968000Y-85653000D01*
X101068000Y-86578000D02*
X100143000Y-85653000D01*
X100117999Y-85627999D02*
X100143000Y-85653000D01*
X85893001Y-85627999D02*
X100117999Y-85627999D01*
X85868000Y-85653000D02*
X85893001Y-85627999D01*
G04 #@! TO.N,DTR*
X96168000Y-88578000D02*
X96168000Y-87128000D01*
D19*
G04 #@! TO.N,LED_RING*
X73787000Y-76708000D02*
X82804000Y-67691000D01*
X59182000Y-76708000D02*
X73787000Y-76708000D01*
D20*
G04 #@! TO.N,ESP_RXD*
X89699000Y-89853000D02*
X90668000Y-89853000D01*
X91868000Y-91053000D02*
X92168000Y-91053000D01*
X90668000Y-89853000D02*
X91868000Y-91053000D01*
D19*
G04 #@! TO.N,Net-(F1-Pad2)*
X106468000Y-98053000D02*
X106468000Y-93853000D01*
G04 #@! TO.N,GND*
X67818000Y-72771000D02*
X73152000Y-72771000D01*
X71247000Y-82169000D02*
X72771000Y-80645000D01*
X67437000Y-82169000D02*
X71247000Y-82169000D01*
X66744990Y-85794990D02*
X67945000Y-86995000D01*
X66744990Y-82861010D02*
X66744990Y-85794990D01*
X67437000Y-82169000D02*
X66744990Y-82861010D01*
X54568000Y-93553000D02*
X54768000Y-93753000D01*
X54568000Y-90153000D02*
X54568000Y-93553000D01*
X55468000Y-93553000D02*
X55668000Y-93753000D01*
X55468000Y-90153000D02*
X55468000Y-93553000D01*
X56368000Y-93553000D02*
X56568000Y-93753000D01*
X56368000Y-90153000D02*
X56368000Y-93553000D01*
X58668000Y-103053000D02*
X60868000Y-100853000D01*
X58668000Y-103653000D02*
X58668000Y-103053000D01*
X63368000Y-100853000D02*
X64468000Y-99753000D01*
X60868000Y-100853000D02*
X63368000Y-100853000D01*
X65300000Y-70253000D02*
X67818000Y-72771000D01*
X61668000Y-70253000D02*
X65300000Y-70253000D01*
X61668000Y-70253000D02*
X60486457Y-70253000D01*
X91694000Y-81153000D02*
X91821000Y-81026000D01*
X82968000Y-81153000D02*
X91694000Y-81153000D01*
X93668000Y-86578010D02*
X93568000Y-86478010D01*
X93668000Y-89453000D02*
X93668000Y-86578010D01*
X60418000Y-70253000D02*
X58618000Y-68453000D01*
X61668000Y-70253000D02*
X60418000Y-70253000D01*
D20*
G04 #@! TO.N,IO0*
X88968000Y-87853000D02*
X91368000Y-87853000D01*
X87868000Y-86753000D02*
X88968000Y-87853000D01*
G04 #@! TD*
M02*
